<svg width="233" height="44" viewBox="0 0 233 44" fill="none" xmlns="http://www.w3.org/2000/svg">
<rect x="18.7622" y="11.693" width="93.5431" height="22.9085" fill="#1A1A1D"/>
<rect x="210.621" y="18.3747" width="12.4088" height="13.3633" fill="#1A1A1D"/>
<mask id="path-3-outside-1" maskUnits="userSpaceOnUse" x="155.986" y="10.5111" width="78" height="34" fill="black">
<rect fill="white" x="155.986" y="10.5111" width="78" height="34"/>
<path d="M160.986 27.8043C160.986 26.8274 161.165 25.9139 161.523 25.0637C161.888 24.2062 162.388 23.4604 163.022 22.8266C163.663 22.1927 164.416 21.6931 165.281 21.3277C166.154 20.9623 167.101 20.7796 168.123 20.7796C168.816 20.7796 169.409 20.8355 169.901 20.9474C170.393 21.0592 170.796 21.186 171.109 21.3277C171.422 21.4619 171.65 21.5887 171.792 21.708C171.941 21.8199 172.015 21.8795 172.015 21.887C172.015 21.9317 171.997 22.0585 171.959 22.2673C171.93 22.4686 171.892 22.7073 171.847 22.9832C171.81 23.2516 171.773 23.5313 171.736 23.8221C171.706 24.1055 171.691 24.3516 171.691 24.5604C171.691 24.5977 171.68 24.6387 171.657 24.6834C171.635 24.7282 171.575 24.7505 171.478 24.7505C171.389 24.7505 171.258 24.7207 171.087 24.6611C170.915 24.5939 170.703 24.5231 170.449 24.4485C170.203 24.374 169.916 24.3068 169.588 24.2472C169.267 24.1801 168.909 24.1465 168.514 24.1465C168.022 24.1465 167.578 24.236 167.183 24.415C166.788 24.5865 166.448 24.8288 166.165 25.142C165.882 25.4478 165.662 25.8132 165.505 26.2383C165.356 26.6633 165.281 27.1219 165.281 27.6141C165.281 28.1287 165.36 28.5686 165.516 28.934C165.68 29.292 165.897 29.5865 166.165 29.8177C166.434 30.0414 166.743 30.2055 167.094 30.3099C167.444 30.4143 167.813 30.4665 168.201 30.4665C168.648 30.4665 169.1 30.4068 169.554 30.2875C170.009 30.1607 170.438 29.9855 170.841 29.7618C170.856 29.7543 170.886 29.7506 170.93 29.7506C170.968 29.7506 170.994 29.7692 171.009 29.8065C171.031 29.8438 171.042 29.9147 171.042 30.0191C171.042 30.2577 171.042 30.5485 171.042 30.8915C171.042 31.2271 171.038 31.5515 171.031 31.8647C171.031 32.1705 171.027 32.4315 171.02 32.6477C171.012 32.864 171.005 32.9721 170.997 32.9721C170.729 33.1511 170.438 33.2965 170.125 33.4083C169.812 33.5202 169.487 33.6097 169.152 33.6768C168.824 33.7439 168.492 33.7887 168.156 33.811C167.821 33.8334 167.496 33.8446 167.183 33.8446C166.311 33.8446 165.498 33.6992 164.745 33.4083C163.991 33.1175 163.335 32.7074 162.776 32.1779C162.224 31.6484 161.788 31.0146 161.467 30.2763C161.146 29.5306 160.986 28.7066 160.986 27.8043Z"/>
<path d="M174.275 16.9988C174.275 16.954 174.271 16.913 174.264 16.8757C174.264 16.8385 174.264 16.8012 174.264 16.7639C174.264 16.6968 174.29 16.6408 174.342 16.5961C174.394 16.5439 174.521 16.4917 174.722 16.4395L177.865 15.6901C177.947 15.6751 178.056 15.6416 178.19 15.5894C178.324 15.5372 178.455 15.5111 178.581 15.5111C178.842 15.5111 178.973 15.6304 178.973 15.869C178.973 15.8839 178.962 16.0368 178.939 16.3276C178.917 16.6185 178.887 16.9801 178.85 17.4127C178.813 17.8452 178.771 18.3187 178.727 18.8333C178.682 19.3403 178.637 19.8251 178.593 20.2874C178.548 20.7498 178.507 21.1562 178.469 21.5067C178.432 21.8497 178.402 22.0734 178.38 22.1778C178.73 21.9839 179.096 21.8012 179.476 21.6297C179.857 21.4582 180.237 21.309 180.617 21.1823C181.005 21.0555 181.389 20.9586 181.769 20.8914C182.157 20.8169 182.53 20.7796 182.888 20.7796C183.343 20.7796 183.768 20.8467 184.163 20.9809C184.558 21.1077 184.901 21.324 185.192 21.6297C185.49 21.928 185.722 22.3232 185.886 22.8154C186.057 23.3001 186.143 23.8967 186.143 24.6051C186.143 24.7841 186.139 24.9705 186.132 25.1644C186.124 25.3508 186.109 25.5447 186.087 25.7461L185.606 30.3211C185.569 30.6343 185.546 30.9624 185.539 31.3054C185.531 31.641 185.528 31.9878 185.528 32.3457C185.528 32.4054 185.528 32.4576 185.528 32.5023C185.535 32.5396 185.539 32.5731 185.539 32.603C185.539 32.6701 185.509 32.7223 185.449 32.7596C185.397 32.7969 185.274 32.8453 185.08 32.905L182.34 33.6656C182.258 33.688 182.15 33.7215 182.015 33.7663C181.881 33.8185 181.751 33.8446 181.624 33.8446C181.497 33.8446 181.4 33.8148 181.333 33.7551C181.266 33.7029 181.232 33.5948 181.232 33.4307C181.285 32.8714 181.326 32.4203 181.355 32.0772C181.393 31.7342 181.419 31.462 181.434 31.2607C181.456 31.0519 181.475 30.8953 181.49 30.7909C181.505 30.679 181.516 30.5821 181.523 30.5C181.531 30.4106 181.542 30.3136 181.557 30.2092C181.572 30.0974 181.587 29.937 181.602 29.7282C181.624 29.5194 181.65 29.2435 181.68 28.9005C181.717 28.5574 181.762 28.1063 181.814 27.547C181.844 27.2487 181.874 26.9541 181.904 26.6633C181.941 26.365 181.959 26.0928 181.959 25.8468C181.959 25.5335 181.941 25.2502 181.904 24.9966C181.874 24.7356 181.814 24.5156 181.725 24.3367C181.643 24.1502 181.527 24.0048 181.378 23.9004C181.229 23.796 181.038 23.7438 180.807 23.7438C180.636 23.7438 180.401 23.7811 180.103 23.8557C179.812 23.9303 179.517 24.0533 179.219 24.2248C178.928 24.3963 178.667 24.6238 178.436 24.9071C178.212 25.1831 178.085 25.5261 178.056 25.9362C177.996 26.5104 177.947 26.9802 177.91 27.3456C177.88 27.7111 177.854 28.0131 177.832 28.2517C177.81 28.4903 177.791 28.6805 177.776 28.8222C177.769 28.9639 177.761 29.0944 177.754 29.2137C177.746 29.251 177.735 29.3442 177.72 29.4933C177.705 29.635 177.686 29.8065 177.664 30.0079C177.642 30.2092 177.619 30.4255 177.597 30.6566C177.575 30.8804 177.552 31.0929 177.53 31.2942C177.515 31.4956 177.5 31.6708 177.485 31.82C177.478 31.9617 177.474 32.0511 177.474 32.0884C177.474 32.1481 177.474 32.2003 177.474 32.245C177.481 32.2823 177.485 32.3196 177.485 32.3569C177.485 32.4165 177.455 32.4687 177.396 32.5135C177.343 32.5508 177.22 32.5955 177.027 32.6477L174.107 33.6656C174.025 33.6954 173.917 33.7327 173.783 33.7775C173.648 33.8222 173.518 33.8446 173.391 33.8446C173.279 33.8446 173.186 33.811 173.111 33.7439C173.037 33.6843 173 33.5799 173 33.4307L174.275 16.9988Z"/>
<path d="M194.521 20.7796C195.23 20.7796 195.871 20.9138 196.445 21.1823C197.027 21.4433 197.523 21.7863 197.933 22.2114C198.35 22.629 198.671 23.0988 198.895 23.6208C199.118 24.1428 199.23 24.6648 199.23 25.1868C199.23 25.6491 199.089 26.1152 198.805 26.585C198.522 27.0474 198.123 27.465 197.608 27.8378C197.101 28.2107 196.49 28.5127 195.774 28.7439C195.058 28.975 194.271 29.0906 193.414 29.0906C192.966 29.0906 192.496 29.0459 192.004 28.9564C192.034 29.2771 192.127 29.553 192.284 29.7842C192.441 30.0153 192.638 30.2055 192.877 30.3546C193.115 30.5038 193.384 30.6156 193.682 30.6902C193.988 30.7573 194.301 30.7909 194.622 30.7909C194.98 30.7909 195.323 30.761 195.651 30.7014C195.986 30.6343 196.307 30.5485 196.613 30.4441C196.919 30.3397 197.213 30.2241 197.497 30.0974C197.78 29.9706 198.048 29.8438 198.302 29.717C198.369 29.7021 198.425 29.6909 198.47 29.6835C198.522 29.6686 198.57 29.6611 198.615 29.6611C198.615 29.6611 198.611 29.7208 198.604 29.8401C198.604 29.9594 198.604 30.1272 198.604 30.3434C198.604 30.5597 198.6 30.8207 198.593 31.1264C198.593 31.4322 198.589 31.7715 198.582 32.1444C198.604 32.1816 198.619 32.2189 198.626 32.2562C198.634 32.2935 198.637 32.3233 198.637 32.3457C198.637 32.4352 198.555 32.5321 198.391 32.6365C198.227 32.7409 198.011 32.8491 197.743 32.9609C197.482 33.0728 197.18 33.1809 196.837 33.2853C196.501 33.3897 196.158 33.4829 195.807 33.5649C195.457 33.6544 195.118 33.7215 194.79 33.7663C194.461 33.8185 194.174 33.8446 193.928 33.8446C193.123 33.8446 192.34 33.7029 191.579 33.4195C190.826 33.1436 190.155 32.7447 189.566 32.2227C188.984 31.7006 188.518 31.0668 188.168 30.3211C187.817 29.5753 187.642 28.7364 187.642 27.8043C187.642 26.8274 187.81 25.9139 188.145 25.0637C188.481 24.2062 188.951 23.4604 189.555 22.8266C190.166 22.1927 190.893 21.6931 191.736 21.3277C192.578 20.9623 193.507 20.7796 194.521 20.7796ZM194.387 23.755C194.081 23.755 193.798 23.8221 193.537 23.9564C193.283 24.0831 193.048 24.2696 192.832 24.5156C192.623 24.7543 192.441 25.0451 192.284 25.3881C192.127 25.7237 192.001 26.0966 191.904 26.5067C192.672 26.3725 193.309 26.2308 193.816 26.0817C194.323 25.9325 194.73 25.7834 195.036 25.6342C195.341 25.4776 195.558 25.3247 195.684 25.1756C195.811 25.019 195.875 24.8699 195.875 24.7282C195.875 24.5939 195.822 24.4672 195.718 24.3479C195.621 24.2285 195.498 24.1241 195.349 24.0347C195.2 23.9452 195.036 23.8781 194.857 23.8333C194.685 23.7811 194.529 23.755 194.387 23.755Z"/>
<path d="M212.049 31.0146C212.042 31.0444 212.038 31.0742 212.038 31.1041C212.038 31.1264 212.038 31.1488 212.038 31.1712C212.038 31.3576 212.068 31.5142 212.128 31.641C212.187 31.7603 212.251 31.861 212.318 31.943C212.392 32.0176 212.459 32.081 212.519 32.1332C212.579 32.1779 212.609 32.2189 212.609 32.2562C212.609 32.3606 212.497 32.4576 212.273 32.547L209.264 33.8334C209.257 33.8409 209.23 33.8446 209.186 33.8446C209.126 33.8446 209.066 33.7924 209.007 33.688C208.947 33.5836 208.887 33.4494 208.828 33.2853C208.776 33.1287 208.723 32.9609 208.671 32.7819C208.626 32.5955 208.585 32.424 208.548 32.2674C208.078 32.8118 207.571 33.2107 207.027 33.4643C206.482 33.7178 205.942 33.8446 205.405 33.8446C204.778 33.8446 204.167 33.7066 203.57 33.4307C202.974 33.1548 202.444 32.7633 201.982 32.2562C201.52 31.7417 201.147 31.1227 200.863 30.3994C200.588 29.676 200.45 28.8632 200.45 27.9609C200.45 26.8945 200.602 25.9213 200.908 25.0414C201.221 24.1614 201.643 23.4045 202.172 22.7707C202.702 22.1368 203.317 21.6484 204.018 21.3053C204.726 20.9548 205.476 20.7796 206.266 20.7796C206.825 20.7796 207.355 20.8952 207.855 21.1263C208.354 21.3501 208.828 21.6409 209.275 21.9988C209.32 21.7751 209.346 21.5961 209.353 21.4619C209.361 21.3277 209.376 21.2233 209.398 21.1487C209.428 21.0741 209.48 21.0257 209.555 21.0033C209.629 20.9735 209.752 20.9511 209.924 20.9362C210.461 20.8616 210.994 20.7945 211.523 20.7348C212.06 20.6677 212.62 20.6193 213.201 20.5894L212.049 31.0146ZM208.705 26.7975C208.779 26.3725 208.828 25.9735 208.85 25.6007C208.88 25.2203 208.902 24.8736 208.917 24.5604C208.798 24.4709 208.667 24.3777 208.526 24.2807C208.391 24.1838 208.242 24.0943 208.078 24.0123C207.922 23.9228 207.754 23.852 207.575 23.7998C207.403 23.7476 207.221 23.7215 207.027 23.7215C206.624 23.7215 206.285 23.852 206.009 24.113C205.74 24.374 205.52 24.6946 205.349 25.0749C205.185 25.4552 205.066 25.8579 204.991 26.283C204.924 26.7081 204.89 27.0846 204.89 27.4128C204.89 28.591 205.043 29.456 205.349 30.0079C205.662 30.5522 206.095 30.8244 206.646 30.8244C206.87 30.8244 207.12 30.761 207.396 30.6343C207.672 30.5075 207.952 30.3323 208.235 30.1085L208.705 26.7975Z"/>
<path d="M219.588 25.4552C219.544 26.1711 219.503 26.7528 219.465 27.2002C219.436 27.6477 219.409 28.0131 219.387 28.2964C219.365 28.5724 219.346 28.7923 219.331 28.9564C219.316 29.113 219.305 29.2621 219.298 29.4038C219.469 29.8513 219.723 30.2167 220.058 30.5C220.394 30.776 220.797 30.9139 221.266 30.9139C221.676 30.9139 222.034 30.7871 222.34 30.5336C222.653 30.2726 222.911 29.937 223.112 29.5269C223.321 29.1167 223.477 28.6581 223.582 28.151C223.686 27.6439 223.738 27.1406 223.738 26.6409C223.738 26.2308 223.701 25.8505 223.627 25.5C223.559 25.1495 223.455 24.8475 223.313 24.5939C223.172 24.3329 222.993 24.1316 222.776 23.9899C222.568 23.8408 222.318 23.7662 222.027 23.7662C221.788 23.7662 221.55 23.8147 221.311 23.9116C221.08 24.0011 220.856 24.1204 220.64 24.2696C220.424 24.4112 220.226 24.5753 220.047 24.7617C219.876 24.9407 219.734 25.1159 219.622 25.2875L219.588 25.4552ZM219.812 22.1778C220.439 21.7528 221.095 21.4134 221.781 21.1599C222.467 20.9064 223.183 20.7796 223.929 20.7796C224.63 20.7796 225.234 20.925 225.741 21.2158C226.255 21.4992 226.68 21.887 227.016 22.3792C227.351 22.8639 227.597 23.4232 227.754 24.057C227.918 24.6909 228 25.3546 228 26.0481C228 26.6521 227.941 27.2636 227.821 27.8826C227.702 28.5015 227.527 29.1018 227.295 29.6835C227.064 30.2577 226.777 30.7983 226.434 31.3054C226.091 31.8125 225.696 32.2562 225.248 32.6365C224.808 33.0094 224.316 33.3039 223.772 33.5202C223.228 33.7365 222.638 33.8446 222.005 33.8446C221.445 33.8446 220.908 33.7327 220.394 33.509C219.887 33.2853 219.409 32.9945 218.962 32.6365C218.962 32.6738 218.951 32.8118 218.928 33.0504C218.914 33.2816 218.891 33.5649 218.861 33.9005C218.832 34.2361 218.798 34.594 218.761 34.9744C218.723 35.3621 218.69 35.7238 218.66 36.0594C218.63 36.395 218.604 36.6783 218.582 36.9095C218.567 37.1481 218.559 37.2861 218.559 37.3234C218.559 37.383 218.559 37.4315 218.559 37.4688C218.567 37.5135 218.571 37.5545 218.571 37.5918C218.571 37.6515 218.541 37.7 218.481 37.7372C218.429 37.782 218.306 37.8305 218.112 37.8827L215.17 38.6321C215.088 38.6545 214.98 38.688 214.846 38.7328C214.711 38.785 214.581 38.8111 214.454 38.8111C214.35 38.8111 214.257 38.785 214.175 38.7328C214.1 38.6806 214.063 38.5836 214.063 38.442L215.427 22.066C215.45 21.8199 215.476 21.6521 215.506 21.5626C215.543 21.4656 215.629 21.4023 215.763 21.3724C216.442 21.2382 217.139 21.104 217.855 20.9697C218.571 20.8281 219.268 20.6491 219.946 20.4328C220.006 20.4328 220.04 20.444 220.047 20.4664C220.062 20.4813 220.069 20.5074 220.069 20.5447C220.069 20.5596 220.066 20.582 220.058 20.6118C220.058 20.6416 220.047 20.7087 220.025 20.8131C220.01 20.9175 219.984 21.0779 219.946 21.2941C219.917 21.5029 219.872 21.7975 219.812 22.1778Z"/>
</mask>
<path d="M160.986 27.8043C160.986 26.8274 161.165 25.9139 161.523 25.0637C161.888 24.2062 162.388 23.4604 163.022 22.8266C163.663 22.1927 164.416 21.6931 165.281 21.3277C166.154 20.9623 167.101 20.7796 168.123 20.7796C168.816 20.7796 169.409 20.8355 169.901 20.9474C170.393 21.0592 170.796 21.186 171.109 21.3277C171.422 21.4619 171.65 21.5887 171.792 21.708C171.941 21.8199 172.015 21.8795 172.015 21.887C172.015 21.9317 171.997 22.0585 171.959 22.2673C171.93 22.4686 171.892 22.7073 171.847 22.9832C171.81 23.2516 171.773 23.5313 171.736 23.8221C171.706 24.1055 171.691 24.3516 171.691 24.5604C171.691 24.5977 171.68 24.6387 171.657 24.6834C171.635 24.7282 171.575 24.7505 171.478 24.7505C171.389 24.7505 171.258 24.7207 171.087 24.6611C170.915 24.5939 170.703 24.5231 170.449 24.4485C170.203 24.374 169.916 24.3068 169.588 24.2472C169.267 24.1801 168.909 24.1465 168.514 24.1465C168.022 24.1465 167.578 24.236 167.183 24.415C166.788 24.5865 166.448 24.8288 166.165 25.142C165.882 25.4478 165.662 25.8132 165.505 26.2383C165.356 26.6633 165.281 27.1219 165.281 27.6141C165.281 28.1287 165.36 28.5686 165.516 28.934C165.68 29.292 165.897 29.5865 166.165 29.8177C166.434 30.0414 166.743 30.2055 167.094 30.3099C167.444 30.4143 167.813 30.4665 168.201 30.4665C168.648 30.4665 169.1 30.4068 169.554 30.2875C170.009 30.1607 170.438 29.9855 170.841 29.7618C170.856 29.7543 170.886 29.7506 170.93 29.7506C170.968 29.7506 170.994 29.7692 171.009 29.8065C171.031 29.8438 171.042 29.9147 171.042 30.0191C171.042 30.2577 171.042 30.5485 171.042 30.8915C171.042 31.2271 171.038 31.5515 171.031 31.8647C171.031 32.1705 171.027 32.4315 171.02 32.6477C171.012 32.864 171.005 32.9721 170.997 32.9721C170.729 33.1511 170.438 33.2965 170.125 33.4083C169.812 33.5202 169.487 33.6097 169.152 33.6768C168.824 33.7439 168.492 33.7887 168.156 33.811C167.821 33.8334 167.496 33.8446 167.183 33.8446C166.311 33.8446 165.498 33.6992 164.745 33.4083C163.991 33.1175 163.335 32.7074 162.776 32.1779C162.224 31.6484 161.788 31.0146 161.467 30.2763C161.146 29.5306 160.986 28.7066 160.986 27.8043Z" fill="white"/>
<path d="M174.275 16.9988C174.275 16.954 174.271 16.913 174.264 16.8757C174.264 16.8385 174.264 16.8012 174.264 16.7639C174.264 16.6968 174.29 16.6408 174.342 16.5961C174.394 16.5439 174.521 16.4917 174.722 16.4395L177.865 15.6901C177.947 15.6751 178.056 15.6416 178.19 15.5894C178.324 15.5372 178.455 15.5111 178.581 15.5111C178.842 15.5111 178.973 15.6304 178.973 15.869C178.973 15.8839 178.962 16.0368 178.939 16.3276C178.917 16.6185 178.887 16.9801 178.85 17.4127C178.813 17.8452 178.771 18.3187 178.727 18.8333C178.682 19.3403 178.637 19.8251 178.593 20.2874C178.548 20.7498 178.507 21.1562 178.469 21.5067C178.432 21.8497 178.402 22.0734 178.38 22.1778C178.73 21.9839 179.096 21.8012 179.476 21.6297C179.857 21.4582 180.237 21.309 180.617 21.1823C181.005 21.0555 181.389 20.9586 181.769 20.8914C182.157 20.8169 182.53 20.7796 182.888 20.7796C183.343 20.7796 183.768 20.8467 184.163 20.9809C184.558 21.1077 184.901 21.324 185.192 21.6297C185.49 21.928 185.722 22.3232 185.886 22.8154C186.057 23.3001 186.143 23.8967 186.143 24.6051C186.143 24.7841 186.139 24.9705 186.132 25.1644C186.124 25.3508 186.109 25.5447 186.087 25.7461L185.606 30.3211C185.569 30.6343 185.546 30.9624 185.539 31.3054C185.531 31.641 185.528 31.9878 185.528 32.3457C185.528 32.4054 185.528 32.4576 185.528 32.5023C185.535 32.5396 185.539 32.5731 185.539 32.603C185.539 32.6701 185.509 32.7223 185.449 32.7596C185.397 32.7969 185.274 32.8453 185.08 32.905L182.34 33.6656C182.258 33.688 182.15 33.7215 182.015 33.7663C181.881 33.8185 181.751 33.8446 181.624 33.8446C181.497 33.8446 181.4 33.8148 181.333 33.7551C181.266 33.7029 181.232 33.5948 181.232 33.4307C181.285 32.8714 181.326 32.4203 181.355 32.0772C181.393 31.7342 181.419 31.462 181.434 31.2607C181.456 31.0519 181.475 30.8953 181.49 30.7909C181.505 30.679 181.516 30.5821 181.523 30.5C181.531 30.4106 181.542 30.3136 181.557 30.2092C181.572 30.0974 181.587 29.937 181.602 29.7282C181.624 29.5194 181.65 29.2435 181.68 28.9005C181.717 28.5574 181.762 28.1063 181.814 27.547C181.844 27.2487 181.874 26.9541 181.904 26.6633C181.941 26.365 181.959 26.0928 181.959 25.8468C181.959 25.5335 181.941 25.2502 181.904 24.9966C181.874 24.7356 181.814 24.5156 181.725 24.3367C181.643 24.1502 181.527 24.0048 181.378 23.9004C181.229 23.796 181.038 23.7438 180.807 23.7438C180.636 23.7438 180.401 23.7811 180.103 23.8557C179.812 23.9303 179.517 24.0533 179.219 24.2248C178.928 24.3963 178.667 24.6238 178.436 24.9071C178.212 25.1831 178.085 25.5261 178.056 25.9362C177.996 26.5104 177.947 26.9802 177.91 27.3456C177.88 27.7111 177.854 28.0131 177.832 28.2517C177.81 28.4903 177.791 28.6805 177.776 28.8222C177.769 28.9639 177.761 29.0944 177.754 29.2137C177.746 29.251 177.735 29.3442 177.72 29.4933C177.705 29.635 177.686 29.8065 177.664 30.0079C177.642 30.2092 177.619 30.4255 177.597 30.6566C177.575 30.8804 177.552 31.0929 177.53 31.2942C177.515 31.4956 177.5 31.6708 177.485 31.82C177.478 31.9617 177.474 32.0511 177.474 32.0884C177.474 32.1481 177.474 32.2003 177.474 32.245C177.481 32.2823 177.485 32.3196 177.485 32.3569C177.485 32.4165 177.455 32.4687 177.396 32.5135C177.343 32.5508 177.22 32.5955 177.027 32.6477L174.107 33.6656C174.025 33.6954 173.917 33.7327 173.783 33.7775C173.648 33.8222 173.518 33.8446 173.391 33.8446C173.279 33.8446 173.186 33.811 173.111 33.7439C173.037 33.6843 173 33.5799 173 33.4307L174.275 16.9988Z" fill="white"/>
<path d="M194.521 20.7796C195.23 20.7796 195.871 20.9138 196.445 21.1823C197.027 21.4433 197.523 21.7863 197.933 22.2114C198.35 22.629 198.671 23.0988 198.895 23.6208C199.118 24.1428 199.23 24.6648 199.23 25.1868C199.23 25.6491 199.089 26.1152 198.805 26.585C198.522 27.0474 198.123 27.465 197.608 27.8378C197.101 28.2107 196.49 28.5127 195.774 28.7439C195.058 28.975 194.271 29.0906 193.414 29.0906C192.966 29.0906 192.496 29.0459 192.004 28.9564C192.034 29.2771 192.127 29.553 192.284 29.7842C192.441 30.0153 192.638 30.2055 192.877 30.3546C193.115 30.5038 193.384 30.6156 193.682 30.6902C193.988 30.7573 194.301 30.7909 194.622 30.7909C194.98 30.7909 195.323 30.761 195.651 30.7014C195.986 30.6343 196.307 30.5485 196.613 30.4441C196.919 30.3397 197.213 30.2241 197.497 30.0974C197.78 29.9706 198.048 29.8438 198.302 29.717C198.369 29.7021 198.425 29.6909 198.47 29.6835C198.522 29.6686 198.57 29.6611 198.615 29.6611C198.615 29.6611 198.611 29.7208 198.604 29.8401C198.604 29.9594 198.604 30.1272 198.604 30.3434C198.604 30.5597 198.6 30.8207 198.593 31.1264C198.593 31.4322 198.589 31.7715 198.582 32.1444C198.604 32.1816 198.619 32.2189 198.626 32.2562C198.634 32.2935 198.637 32.3233 198.637 32.3457C198.637 32.4352 198.555 32.5321 198.391 32.6365C198.227 32.7409 198.011 32.8491 197.743 32.9609C197.482 33.0728 197.18 33.1809 196.837 33.2853C196.501 33.3897 196.158 33.4829 195.807 33.5649C195.457 33.6544 195.118 33.7215 194.79 33.7663C194.461 33.8185 194.174 33.8446 193.928 33.8446C193.123 33.8446 192.34 33.7029 191.579 33.4195C190.826 33.1436 190.155 32.7447 189.566 32.2227C188.984 31.7006 188.518 31.0668 188.168 30.3211C187.817 29.5753 187.642 28.7364 187.642 27.8043C187.642 26.8274 187.81 25.9139 188.145 25.0637C188.481 24.2062 188.951 23.4604 189.555 22.8266C190.166 22.1927 190.893 21.6931 191.736 21.3277C192.578 20.9623 193.507 20.7796 194.521 20.7796ZM194.387 23.755C194.081 23.755 193.798 23.8221 193.537 23.9564C193.283 24.0831 193.048 24.2696 192.832 24.5156C192.623 24.7543 192.441 25.0451 192.284 25.3881C192.127 25.7237 192.001 26.0966 191.904 26.5067C192.672 26.3725 193.309 26.2308 193.816 26.0817C194.323 25.9325 194.73 25.7834 195.036 25.6342C195.341 25.4776 195.558 25.3247 195.684 25.1756C195.811 25.019 195.875 24.8699 195.875 24.7282C195.875 24.5939 195.822 24.4672 195.718 24.3479C195.621 24.2285 195.498 24.1241 195.349 24.0347C195.2 23.9452 195.036 23.8781 194.857 23.8333C194.685 23.7811 194.529 23.755 194.387 23.755Z" fill="white"/>
<path d="M212.049 31.0146C212.042 31.0444 212.038 31.0742 212.038 31.1041C212.038 31.1264 212.038 31.1488 212.038 31.1712C212.038 31.3576 212.068 31.5142 212.128 31.641C212.187 31.7603 212.251 31.861 212.318 31.943C212.392 32.0176 212.459 32.081 212.519 32.1332C212.579 32.1779 212.609 32.2189 212.609 32.2562C212.609 32.3606 212.497 32.4576 212.273 32.547L209.264 33.8334C209.257 33.8409 209.23 33.8446 209.186 33.8446C209.126 33.8446 209.066 33.7924 209.007 33.688C208.947 33.5836 208.887 33.4494 208.828 33.2853C208.776 33.1287 208.723 32.9609 208.671 32.7819C208.626 32.5955 208.585 32.424 208.548 32.2674C208.078 32.8118 207.571 33.2107 207.027 33.4643C206.482 33.7178 205.942 33.8446 205.405 33.8446C204.778 33.8446 204.167 33.7066 203.57 33.4307C202.974 33.1548 202.444 32.7633 201.982 32.2562C201.52 31.7417 201.147 31.1227 200.863 30.3994C200.588 29.676 200.45 28.8632 200.45 27.9609C200.45 26.8945 200.602 25.9213 200.908 25.0414C201.221 24.1614 201.643 23.4045 202.172 22.7707C202.702 22.1368 203.317 21.6484 204.018 21.3053C204.726 20.9548 205.476 20.7796 206.266 20.7796C206.825 20.7796 207.355 20.8952 207.855 21.1263C208.354 21.3501 208.828 21.6409 209.275 21.9988C209.32 21.7751 209.346 21.5961 209.353 21.4619C209.361 21.3277 209.376 21.2233 209.398 21.1487C209.428 21.0741 209.48 21.0257 209.555 21.0033C209.629 20.9735 209.752 20.9511 209.924 20.9362C210.461 20.8616 210.994 20.7945 211.523 20.7348C212.06 20.6677 212.62 20.6193 213.201 20.5894L212.049 31.0146ZM208.705 26.7975C208.779 26.3725 208.828 25.9735 208.85 25.6007C208.88 25.2203 208.902 24.8736 208.917 24.5604C208.798 24.4709 208.667 24.3777 208.526 24.2807C208.391 24.1838 208.242 24.0943 208.078 24.0123C207.922 23.9228 207.754 23.852 207.575 23.7998C207.403 23.7476 207.221 23.7215 207.027 23.7215C206.624 23.7215 206.285 23.852 206.009 24.113C205.74 24.374 205.52 24.6946 205.349 25.0749C205.185 25.4552 205.066 25.8579 204.991 26.283C204.924 26.7081 204.89 27.0846 204.89 27.4128C204.89 28.591 205.043 29.456 205.349 30.0079C205.662 30.5522 206.095 30.8244 206.646 30.8244C206.87 30.8244 207.12 30.761 207.396 30.6343C207.672 30.5075 207.952 30.3323 208.235 30.1085L208.705 26.7975Z" fill="white"/>
<path d="M219.588 25.4552C219.544 26.1711 219.503 26.7528 219.465 27.2002C219.436 27.6477 219.409 28.0131 219.387 28.2964C219.365 28.5724 219.346 28.7923 219.331 28.9564C219.316 29.113 219.305 29.2621 219.298 29.4038C219.469 29.8513 219.723 30.2167 220.058 30.5C220.394 30.776 220.797 30.9139 221.266 30.9139C221.676 30.9139 222.034 30.7871 222.34 30.5336C222.653 30.2726 222.911 29.937 223.112 29.5269C223.321 29.1167 223.477 28.6581 223.582 28.151C223.686 27.6439 223.738 27.1406 223.738 26.6409C223.738 26.2308 223.701 25.8505 223.627 25.5C223.559 25.1495 223.455 24.8475 223.313 24.5939C223.172 24.3329 222.993 24.1316 222.776 23.9899C222.568 23.8408 222.318 23.7662 222.027 23.7662C221.788 23.7662 221.55 23.8147 221.311 23.9116C221.08 24.0011 220.856 24.1204 220.64 24.2696C220.424 24.4112 220.226 24.5753 220.047 24.7617C219.876 24.9407 219.734 25.1159 219.622 25.2875L219.588 25.4552ZM219.812 22.1778C220.439 21.7528 221.095 21.4134 221.781 21.1599C222.467 20.9064 223.183 20.7796 223.929 20.7796C224.63 20.7796 225.234 20.925 225.741 21.2158C226.255 21.4992 226.68 21.887 227.016 22.3792C227.351 22.8639 227.597 23.4232 227.754 24.057C227.918 24.6909 228 25.3546 228 26.0481C228 26.6521 227.941 27.2636 227.821 27.8826C227.702 28.5015 227.527 29.1018 227.295 29.6835C227.064 30.2577 226.777 30.7983 226.434 31.3054C226.091 31.8125 225.696 32.2562 225.248 32.6365C224.808 33.0094 224.316 33.3039 223.772 33.5202C223.228 33.7365 222.638 33.8446 222.005 33.8446C221.445 33.8446 220.908 33.7327 220.394 33.509C219.887 33.2853 219.409 32.9945 218.962 32.6365C218.962 32.6738 218.951 32.8118 218.928 33.0504C218.914 33.2816 218.891 33.5649 218.861 33.9005C218.832 34.2361 218.798 34.594 218.761 34.9744C218.723 35.3621 218.69 35.7238 218.66 36.0594C218.63 36.395 218.604 36.6783 218.582 36.9095C218.567 37.1481 218.559 37.2861 218.559 37.3234C218.559 37.383 218.559 37.4315 218.559 37.4688C218.567 37.5135 218.571 37.5545 218.571 37.5918C218.571 37.6515 218.541 37.7 218.481 37.7372C218.429 37.782 218.306 37.8305 218.112 37.8827L215.17 38.6321C215.088 38.6545 214.98 38.688 214.846 38.7328C214.711 38.785 214.581 38.8111 214.454 38.8111C214.35 38.8111 214.257 38.785 214.175 38.7328C214.1 38.6806 214.063 38.5836 214.063 38.442L215.427 22.066C215.45 21.8199 215.476 21.6521 215.506 21.5626C215.543 21.4656 215.629 21.4023 215.763 21.3724C216.442 21.2382 217.139 21.104 217.855 20.9697C218.571 20.8281 219.268 20.6491 219.946 20.4328C220.006 20.4328 220.04 20.444 220.047 20.4664C220.062 20.4813 220.069 20.5074 220.069 20.5447C220.069 20.5596 220.066 20.582 220.058 20.6118C220.058 20.6416 220.047 20.7087 220.025 20.8131C220.01 20.9175 219.984 21.0779 219.946 21.2941C219.917 21.5029 219.872 21.7975 219.812 22.1778Z" fill="white"/>
<path d="M160.986 27.8043C160.986 26.8274 161.165 25.9139 161.523 25.0637C161.888 24.2062 162.388 23.4604 163.022 22.8266C163.663 22.1927 164.416 21.6931 165.281 21.3277C166.154 20.9623 167.101 20.7796 168.123 20.7796C168.816 20.7796 169.409 20.8355 169.901 20.9474C170.393 21.0592 170.796 21.186 171.109 21.3277C171.422 21.4619 171.65 21.5887 171.792 21.708C171.941 21.8199 172.015 21.8795 172.015 21.887C172.015 21.9317 171.997 22.0585 171.959 22.2673C171.93 22.4686 171.892 22.7073 171.847 22.9832C171.81 23.2516 171.773 23.5313 171.736 23.8221C171.706 24.1055 171.691 24.3516 171.691 24.5604C171.691 24.5977 171.68 24.6387 171.657 24.6834C171.635 24.7282 171.575 24.7505 171.478 24.7505C171.389 24.7505 171.258 24.7207 171.087 24.6611C170.915 24.5939 170.703 24.5231 170.449 24.4485C170.203 24.374 169.916 24.3068 169.588 24.2472C169.267 24.1801 168.909 24.1465 168.514 24.1465C168.022 24.1465 167.578 24.236 167.183 24.415C166.788 24.5865 166.448 24.8288 166.165 25.142C165.882 25.4478 165.662 25.8132 165.505 26.2383C165.356 26.6633 165.281 27.1219 165.281 27.6141C165.281 28.1287 165.36 28.5686 165.516 28.934C165.68 29.292 165.897 29.5865 166.165 29.8177C166.434 30.0414 166.743 30.2055 167.094 30.3099C167.444 30.4143 167.813 30.4665 168.201 30.4665C168.648 30.4665 169.1 30.4068 169.554 30.2875C170.009 30.1607 170.438 29.9855 170.841 29.7618C170.856 29.7543 170.886 29.7506 170.93 29.7506C170.968 29.7506 170.994 29.7692 171.009 29.8065C171.031 29.8438 171.042 29.9147 171.042 30.0191C171.042 30.2577 171.042 30.5485 171.042 30.8915C171.042 31.2271 171.038 31.5515 171.031 31.8647C171.031 32.1705 171.027 32.4315 171.02 32.6477C171.012 32.864 171.005 32.9721 170.997 32.9721C170.729 33.1511 170.438 33.2965 170.125 33.4083C169.812 33.5202 169.487 33.6097 169.152 33.6768C168.824 33.7439 168.492 33.7887 168.156 33.811C167.821 33.8334 167.496 33.8446 167.183 33.8446C166.311 33.8446 165.498 33.6992 164.745 33.4083C163.991 33.1175 163.335 32.7074 162.776 32.1779C162.224 31.6484 161.788 31.0146 161.467 30.2763C161.146 29.5306 160.986 28.7066 160.986 27.8043Z" stroke="#1A1A1D" stroke-width="10" mask="url(#path-3-outside-1)"/>
<path d="M174.275 16.9988C174.275 16.954 174.271 16.913 174.264 16.8757C174.264 16.8385 174.264 16.8012 174.264 16.7639C174.264 16.6968 174.29 16.6408 174.342 16.5961C174.394 16.5439 174.521 16.4917 174.722 16.4395L177.865 15.6901C177.947 15.6751 178.056 15.6416 178.19 15.5894C178.324 15.5372 178.455 15.5111 178.581 15.5111C178.842 15.5111 178.973 15.6304 178.973 15.869C178.973 15.8839 178.962 16.0368 178.939 16.3276C178.917 16.6185 178.887 16.9801 178.85 17.4127C178.813 17.8452 178.771 18.3187 178.727 18.8333C178.682 19.3403 178.637 19.8251 178.593 20.2874C178.548 20.7498 178.507 21.1562 178.469 21.5067C178.432 21.8497 178.402 22.0734 178.38 22.1778C178.73 21.9839 179.096 21.8012 179.476 21.6297C179.857 21.4582 180.237 21.309 180.617 21.1823C181.005 21.0555 181.389 20.9586 181.769 20.8914C182.157 20.8169 182.53 20.7796 182.888 20.7796C183.343 20.7796 183.768 20.8467 184.163 20.9809C184.558 21.1077 184.901 21.324 185.192 21.6297C185.49 21.928 185.722 22.3232 185.886 22.8154C186.057 23.3001 186.143 23.8967 186.143 24.6051C186.143 24.7841 186.139 24.9705 186.132 25.1644C186.124 25.3508 186.109 25.5447 186.087 25.7461L185.606 30.3211C185.569 30.6343 185.546 30.9624 185.539 31.3054C185.531 31.641 185.528 31.9878 185.528 32.3457C185.528 32.4054 185.528 32.4576 185.528 32.5023C185.535 32.5396 185.539 32.5731 185.539 32.603C185.539 32.6701 185.509 32.7223 185.449 32.7596C185.397 32.7969 185.274 32.8453 185.08 32.905L182.34 33.6656C182.258 33.688 182.15 33.7215 182.015 33.7663C181.881 33.8185 181.751 33.8446 181.624 33.8446C181.497 33.8446 181.4 33.8148 181.333 33.7551C181.266 33.7029 181.232 33.5948 181.232 33.4307C181.285 32.8714 181.326 32.4203 181.355 32.0772C181.393 31.7342 181.419 31.462 181.434 31.2607C181.456 31.0519 181.475 30.8953 181.49 30.7909C181.505 30.679 181.516 30.5821 181.523 30.5C181.531 30.4106 181.542 30.3136 181.557 30.2092C181.572 30.0974 181.587 29.937 181.602 29.7282C181.624 29.5194 181.65 29.2435 181.68 28.9005C181.717 28.5574 181.762 28.1063 181.814 27.547C181.844 27.2487 181.874 26.9541 181.904 26.6633C181.941 26.365 181.959 26.0928 181.959 25.8468C181.959 25.5335 181.941 25.2502 181.904 24.9966C181.874 24.7356 181.814 24.5156 181.725 24.3367C181.643 24.1502 181.527 24.0048 181.378 23.9004C181.229 23.796 181.038 23.7438 180.807 23.7438C180.636 23.7438 180.401 23.7811 180.103 23.8557C179.812 23.9303 179.517 24.0533 179.219 24.2248C178.928 24.3963 178.667 24.6238 178.436 24.9071C178.212 25.1831 178.085 25.5261 178.056 25.9362C177.996 26.5104 177.947 26.9802 177.91 27.3456C177.88 27.7111 177.854 28.0131 177.832 28.2517C177.81 28.4903 177.791 28.6805 177.776 28.8222C177.769 28.9639 177.761 29.0944 177.754 29.2137C177.746 29.251 177.735 29.3442 177.72 29.4933C177.705 29.635 177.686 29.8065 177.664 30.0079C177.642 30.2092 177.619 30.4255 177.597 30.6566C177.575 30.8804 177.552 31.0929 177.53 31.2942C177.515 31.4956 177.5 31.6708 177.485 31.82C177.478 31.9617 177.474 32.0511 177.474 32.0884C177.474 32.1481 177.474 32.2003 177.474 32.245C177.481 32.2823 177.485 32.3196 177.485 32.3569C177.485 32.4165 177.455 32.4687 177.396 32.5135C177.343 32.5508 177.22 32.5955 177.027 32.6477L174.107 33.6656C174.025 33.6954 173.917 33.7327 173.783 33.7775C173.648 33.8222 173.518 33.8446 173.391 33.8446C173.279 33.8446 173.186 33.811 173.111 33.7439C173.037 33.6843 173 33.5799 173 33.4307L174.275 16.9988Z" stroke="#1A1A1D" stroke-width="10" mask="url(#path-3-outside-1)"/>
<path d="M194.521 20.7796C195.23 20.7796 195.871 20.9138 196.445 21.1823C197.027 21.4433 197.523 21.7863 197.933 22.2114C198.35 22.629 198.671 23.0988 198.895 23.6208C199.118 24.1428 199.23 24.6648 199.23 25.1868C199.23 25.6491 199.089 26.1152 198.805 26.585C198.522 27.0474 198.123 27.465 197.608 27.8378C197.101 28.2107 196.49 28.5127 195.774 28.7439C195.058 28.975 194.271 29.0906 193.414 29.0906C192.966 29.0906 192.496 29.0459 192.004 28.9564C192.034 29.2771 192.127 29.553 192.284 29.7842C192.441 30.0153 192.638 30.2055 192.877 30.3546C193.115 30.5038 193.384 30.6156 193.682 30.6902C193.988 30.7573 194.301 30.7909 194.622 30.7909C194.98 30.7909 195.323 30.761 195.651 30.7014C195.986 30.6343 196.307 30.5485 196.613 30.4441C196.919 30.3397 197.213 30.2241 197.497 30.0974C197.78 29.9706 198.048 29.8438 198.302 29.717C198.369 29.7021 198.425 29.6909 198.47 29.6835C198.522 29.6686 198.57 29.6611 198.615 29.6611C198.615 29.6611 198.611 29.7208 198.604 29.8401C198.604 29.9594 198.604 30.1272 198.604 30.3434C198.604 30.5597 198.6 30.8207 198.593 31.1264C198.593 31.4322 198.589 31.7715 198.582 32.1444C198.604 32.1816 198.619 32.2189 198.626 32.2562C198.634 32.2935 198.637 32.3233 198.637 32.3457C198.637 32.4352 198.555 32.5321 198.391 32.6365C198.227 32.7409 198.011 32.8491 197.743 32.9609C197.482 33.0728 197.18 33.1809 196.837 33.2853C196.501 33.3897 196.158 33.4829 195.807 33.5649C195.457 33.6544 195.118 33.7215 194.79 33.7663C194.461 33.8185 194.174 33.8446 193.928 33.8446C193.123 33.8446 192.34 33.7029 191.579 33.4195C190.826 33.1436 190.155 32.7447 189.566 32.2227C188.984 31.7006 188.518 31.0668 188.168 30.3211C187.817 29.5753 187.642 28.7364 187.642 27.8043C187.642 26.8274 187.81 25.9139 188.145 25.0637C188.481 24.2062 188.951 23.4604 189.555 22.8266C190.166 22.1927 190.893 21.6931 191.736 21.3277C192.578 20.9623 193.507 20.7796 194.521 20.7796ZM194.387 23.755C194.081 23.755 193.798 23.8221 193.537 23.9564C193.283 24.0831 193.048 24.2696 192.832 24.5156C192.623 24.7543 192.441 25.0451 192.284 25.3881C192.127 25.7237 192.001 26.0966 191.904 26.5067C192.672 26.3725 193.309 26.2308 193.816 26.0817C194.323 25.9325 194.73 25.7834 195.036 25.6342C195.341 25.4776 195.558 25.3247 195.684 25.1756C195.811 25.019 195.875 24.8699 195.875 24.7282C195.875 24.5939 195.822 24.4672 195.718 24.3479C195.621 24.2285 195.498 24.1241 195.349 24.0347C195.2 23.9452 195.036 23.8781 194.857 23.8333C194.685 23.7811 194.529 23.755 194.387 23.755Z" stroke="#1A1A1D" stroke-width="10" mask="url(#path-3-outside-1)"/>
<path d="M212.049 31.0146C212.042 31.0444 212.038 31.0742 212.038 31.1041C212.038 31.1264 212.038 31.1488 212.038 31.1712C212.038 31.3576 212.068 31.5142 212.128 31.641C212.187 31.7603 212.251 31.861 212.318 31.943C212.392 32.0176 212.459 32.081 212.519 32.1332C212.579 32.1779 212.609 32.2189 212.609 32.2562C212.609 32.3606 212.497 32.4576 212.273 32.547L209.264 33.8334C209.257 33.8409 209.23 33.8446 209.186 33.8446C209.126 33.8446 209.066 33.7924 209.007 33.688C208.947 33.5836 208.887 33.4494 208.828 33.2853C208.776 33.1287 208.723 32.9609 208.671 32.7819C208.626 32.5955 208.585 32.424 208.548 32.2674C208.078 32.8118 207.571 33.2107 207.027 33.4643C206.482 33.7178 205.942 33.8446 205.405 33.8446C204.778 33.8446 204.167 33.7066 203.57 33.4307C202.974 33.1548 202.444 32.7633 201.982 32.2562C201.52 31.7417 201.147 31.1227 200.863 30.3994C200.588 29.676 200.45 28.8632 200.45 27.9609C200.45 26.8945 200.602 25.9213 200.908 25.0414C201.221 24.1614 201.643 23.4045 202.172 22.7707C202.702 22.1368 203.317 21.6484 204.018 21.3053C204.726 20.9548 205.476 20.7796 206.266 20.7796C206.825 20.7796 207.355 20.8952 207.855 21.1263C208.354 21.3501 208.828 21.6409 209.275 21.9988C209.32 21.7751 209.346 21.5961 209.353 21.4619C209.361 21.3277 209.376 21.2233 209.398 21.1487C209.428 21.0741 209.48 21.0257 209.555 21.0033C209.629 20.9735 209.752 20.9511 209.924 20.9362C210.461 20.8616 210.994 20.7945 211.523 20.7348C212.06 20.6677 212.62 20.6193 213.201 20.5894L212.049 31.0146ZM208.705 26.7975C208.779 26.3725 208.828 25.9735 208.85 25.6007C208.88 25.2203 208.902 24.8736 208.917 24.5604C208.798 24.4709 208.667 24.3777 208.526 24.2807C208.391 24.1838 208.242 24.0943 208.078 24.0123C207.922 23.9228 207.754 23.852 207.575 23.7998C207.403 23.7476 207.221 23.7215 207.027 23.7215C206.624 23.7215 206.285 23.852 206.009 24.113C205.74 24.374 205.52 24.6946 205.349 25.0749C205.185 25.4552 205.066 25.8579 204.991 26.283C204.924 26.7081 204.89 27.0846 204.89 27.4128C204.89 28.591 205.043 29.456 205.349 30.0079C205.662 30.5522 206.095 30.8244 206.646 30.8244C206.87 30.8244 207.12 30.761 207.396 30.6343C207.672 30.5075 207.952 30.3323 208.235 30.1085L208.705 26.7975Z" stroke="#1A1A1D" stroke-width="10" mask="url(#path-3-outside-1)"/>
<path d="M219.588 25.4552C219.544 26.1711 219.503 26.7528 219.465 27.2002C219.436 27.6477 219.409 28.0131 219.387 28.2964C219.365 28.5724 219.346 28.7923 219.331 28.9564C219.316 29.113 219.305 29.2621 219.298 29.4038C219.469 29.8513 219.723 30.2167 220.058 30.5C220.394 30.776 220.797 30.9139 221.266 30.9139C221.676 30.9139 222.034 30.7871 222.34 30.5336C222.653 30.2726 222.911 29.937 223.112 29.5269C223.321 29.1167 223.477 28.6581 223.582 28.151C223.686 27.6439 223.738 27.1406 223.738 26.6409C223.738 26.2308 223.701 25.8505 223.627 25.5C223.559 25.1495 223.455 24.8475 223.313 24.5939C223.172 24.3329 222.993 24.1316 222.776 23.9899C222.568 23.8408 222.318 23.7662 222.027 23.7662C221.788 23.7662 221.55 23.8147 221.311 23.9116C221.08 24.0011 220.856 24.1204 220.64 24.2696C220.424 24.4112 220.226 24.5753 220.047 24.7617C219.876 24.9407 219.734 25.1159 219.622 25.2875L219.588 25.4552ZM219.812 22.1778C220.439 21.7528 221.095 21.4134 221.781 21.1599C222.467 20.9064 223.183 20.7796 223.929 20.7796C224.63 20.7796 225.234 20.925 225.741 21.2158C226.255 21.4992 226.68 21.887 227.016 22.3792C227.351 22.8639 227.597 23.4232 227.754 24.057C227.918 24.6909 228 25.3546 228 26.0481C228 26.6521 227.941 27.2636 227.821 27.8826C227.702 28.5015 227.527 29.1018 227.295 29.6835C227.064 30.2577 226.777 30.7983 226.434 31.3054C226.091 31.8125 225.696 32.2562 225.248 32.6365C224.808 33.0094 224.316 33.3039 223.772 33.5202C223.228 33.7365 222.638 33.8446 222.005 33.8446C221.445 33.8446 220.908 33.7327 220.394 33.509C219.887 33.2853 219.409 32.9945 218.962 32.6365C218.962 32.6738 218.951 32.8118 218.928 33.0504C218.914 33.2816 218.891 33.5649 218.861 33.9005C218.832 34.2361 218.798 34.594 218.761 34.9744C218.723 35.3621 218.69 35.7238 218.66 36.0594C218.63 36.395 218.604 36.6783 218.582 36.9095C218.567 37.1481 218.559 37.2861 218.559 37.3234C218.559 37.383 218.559 37.4315 218.559 37.4688C218.567 37.5135 218.571 37.5545 218.571 37.5918C218.571 37.6515 218.541 37.7 218.481 37.7372C218.429 37.782 218.306 37.8305 218.112 37.8827L215.17 38.6321C215.088 38.6545 214.98 38.688 214.846 38.7328C214.711 38.785 214.581 38.8111 214.454 38.8111C214.35 38.8111 214.257 38.785 214.175 38.7328C214.1 38.6806 214.063 38.5836 214.063 38.442L215.427 22.066C215.45 21.8199 215.476 21.6521 215.506 21.5626C215.543 21.4656 215.629 21.4023 215.763 21.3724C216.442 21.2382 217.139 21.104 217.855 20.9697C218.571 20.8281 219.268 20.6491 219.946 20.4328C220.006 20.4328 220.04 20.444 220.047 20.4664C220.062 20.4813 220.069 20.5074 220.069 20.5447C220.069 20.5596 220.066 20.582 220.058 20.6118C220.058 20.6416 220.047 20.7087 220.025 20.8131C220.01 20.9175 219.984 21.0779 219.946 21.2941C219.917 21.5029 219.872 21.7975 219.812 22.1778Z" stroke="#1A1A1D" stroke-width="10" mask="url(#path-3-outside-1)"/>
<mask id="path-4-outside-2" maskUnits="userSpaceOnUse" x="0" y="0.25" width="161" height="39" fill="black">
<rect fill="white" y="0.25" width="161" height="39"/>
<path d="M23.3447 8.13966C23.3447 7.69223 23.382 7.38773 23.4566 7.22616C23.5436 7.05216 23.7113 6.93408 23.9599 6.87194L30.3731 5.32457C30.5347 5.27486 30.7025 5.25 30.8765 5.25C31.0505 5.25 31.1685 5.30593 31.2307 5.41779C31.2928 5.51722 31.3239 5.7285 31.3239 6.05165L31.1002 8.9786C31.038 9.83618 30.9697 10.6875 30.8951 11.5327C30.8205 12.3778 30.7087 13.1173 30.5595 13.7512L30.224 16.3985C30.1245 17.1815 30.0313 18.0329 29.9443 18.9526C29.8573 19.8599 29.7641 20.879 29.6647 22.01L28.7885 31.201C28.776 31.3129 28.7512 31.4248 28.7139 31.5366C28.6766 31.6485 28.5958 31.7293 28.4715 31.779C28.3845 31.8163 28.1795 31.897 27.8563 32.0213C27.5456 32.1456 27.1727 32.2886 26.7377 32.4501C26.3027 32.6117 25.8366 32.7795 25.3395 32.9535C24.8424 33.1399 24.3701 33.3077 23.9226 33.4568C23.4752 33.606 23.0775 33.7303 22.7295 33.8297C22.3815 33.9291 22.1453 33.9788 22.021 33.9788C21.847 33.9788 21.6917 33.9291 21.555 33.8297C21.4307 33.7427 21.3685 33.5687 21.3685 33.3077C21.3685 31.8038 21.4555 30.2689 21.6295 28.7029C21.8035 27.1244 21.9589 25.5584 22.0956 24.0048C22.1205 23.8308 22.1267 23.6693 22.1143 23.5201C22.1143 23.371 22.1267 23.2094 22.1516 23.0354H15.3282L14.5639 31.201C14.5514 31.3129 14.5266 31.4248 14.4893 31.5366C14.4644 31.636 14.3836 31.7168 14.2469 31.779C14.1972 31.8038 13.9486 31.897 13.5012 32.0586C13.0662 32.2078 12.5566 32.388 11.9725 32.5993C11.4008 32.7981 10.829 32.997 10.2573 33.1958C9.69803 33.4071 9.26924 33.5687 8.97096 33.6806C8.82181 33.7427 8.63538 33.8048 8.41167 33.867C8.20038 33.9416 7.98909 33.9788 7.77781 33.9788C7.6038 33.9788 7.44845 33.9291 7.31173 33.8297C7.18744 33.7303 7.1253 33.5501 7.1253 33.2891C7.1253 32.6925 7.14394 32.0151 7.18123 31.257C7.23094 30.4864 7.28687 29.6847 7.34902 28.852C7.41116 28.0069 7.48573 27.1431 7.57273 26.2607C7.65973 25.3782 7.74673 24.5082 7.83373 23.6506L7.87102 23.11C6.8643 23.11 6.13101 23.0851 5.67115 23.0354C5.22372 22.9733 5 22.8241 5 22.588C5 22.4264 5.09321 22.2151 5.27964 21.9541C5.52822 21.6061 5.81408 21.1898 6.13722 20.705C6.4728 20.2079 6.78973 19.7232 7.08801 19.2509C7.39873 18.7662 7.67216 18.3374 7.90831 17.9645C8.15688 17.5792 8.31845 17.3307 8.39302 17.2188L8.82181 12.7258C8.82181 12.701 8.83424 12.5146 8.8591 12.1665C8.88396 11.8185 8.91503 11.4084 8.95231 10.9361C8.9896 10.4514 9.02689 9.95425 9.06417 9.44467C9.11389 8.9351 9.15739 8.50009 9.19467 8.13966C9.21953 7.70466 9.2506 7.40016 9.28789 7.22616C9.3376 7.05216 9.48675 6.93408 9.73532 6.87194L16.0739 5.32457C16.2355 5.27486 16.4033 5.25 16.5773 5.25C16.7513 5.25 16.8694 5.30593 16.9315 5.41779C16.9937 5.51722 17.0247 5.7285 17.0247 6.05165C16.9377 6.94651 16.8694 7.76059 16.8197 8.49388C16.7699 9.22717 16.714 9.91075 16.6519 10.5446C16.6022 11.1785 16.5462 11.7813 16.4841 12.353C16.4219 12.9247 16.3349 13.5088 16.2231 14.1054L15.8502 16.9951L22.6176 16.9205C22.7295 15.2675 22.8538 13.8631 22.9905 12.7072C23.1272 11.5513 23.2142 10.6378 23.2515 9.96668C23.2888 9.33281 23.3136 8.87917 23.3261 8.60574C23.3385 8.33231 23.3447 8.17695 23.3447 8.13966Z"/>
<path d="M52.0549 28.9452C52.0425 28.995 52.0363 29.0447 52.0363 29.0944C52.0363 29.1317 52.0363 29.169 52.0363 29.2062C52.0363 29.517 52.086 29.778 52.1854 29.9892C52.2848 30.1881 52.3905 30.3559 52.5023 30.4926C52.6266 30.6169 52.7385 30.7225 52.8379 30.8095C52.9373 30.8841 52.9871 30.9525 52.9871 31.0146C52.9871 31.1886 52.8006 31.3502 52.4278 31.4993L47.4128 33.6433C47.4004 33.6557 47.3569 33.6619 47.2823 33.6619C47.1829 33.6619 47.0834 33.5749 46.984 33.4009C46.8846 33.2269 46.7852 33.0032 46.6857 32.7298C46.5987 32.4688 46.5117 32.1891 46.4247 31.8908C46.3502 31.5801 46.2818 31.2943 46.2196 31.0333C45.4366 31.9405 44.5915 32.6055 43.6842 33.0281C42.7769 33.4506 41.8758 33.6619 40.981 33.6619C39.937 33.6619 38.9178 33.432 37.9235 32.9721C36.9292 32.5123 36.0468 31.8598 35.2762 31.0146C34.5056 30.157 33.8842 29.1255 33.4119 27.9199C32.9521 26.7143 32.7221 25.3596 32.7221 23.8557C32.7221 22.0784 32.9769 20.4565 33.4865 18.9899C34.0085 17.5233 34.7107 16.2618 35.5931 15.2054C36.4756 14.1489 37.5009 13.3348 38.6692 12.7631C39.85 12.179 41.099 11.8869 42.4165 11.8869C43.3486 11.8869 44.2311 12.0795 45.0638 12.4648C45.8965 12.8377 46.6857 13.3224 47.4314 13.919C47.506 13.5461 47.5495 13.2478 47.5619 13.0241C47.5744 12.8004 47.5992 12.6264 47.6365 12.5021C47.6862 12.3778 47.7732 12.2971 47.8975 12.2598C48.0218 12.21 48.2269 12.1728 48.5127 12.1479C49.4076 12.0236 50.2963 11.9118 51.1787 11.8123C52.0735 11.7005 53.0057 11.6197 53.9751 11.57L52.0549 28.9452ZM46.4807 21.9168C46.6049 21.2084 46.6857 20.5435 46.723 19.922C46.7727 19.2882 46.81 18.7102 46.8349 18.1882C46.636 18.0391 46.4185 17.8837 46.1824 17.7222C45.9586 17.5606 45.7101 17.4114 45.4366 17.2747C45.1756 17.1256 44.896 17.0075 44.5977 16.9205C44.3119 16.8335 44.0073 16.79 43.6842 16.79C43.0131 16.79 42.4476 17.0075 41.9877 17.4425C41.5403 17.8775 41.1736 18.412 40.8878 19.0458C40.6143 19.6797 40.4155 20.3508 40.2912 21.0593C40.1793 21.7677 40.1234 22.3953 40.1234 22.9422C40.1234 24.9059 40.3782 26.3477 40.8878 27.2674C41.4098 28.1747 42.1306 28.6283 43.0503 28.6283C43.4232 28.6283 43.8396 28.5227 44.2994 28.3114C44.7593 28.1001 45.2254 27.808 45.6976 27.4352L46.4807 21.9168Z"/>
<path d="M71.5368 17.5171C71.2758 17.4922 70.9838 17.4674 70.6606 17.4425C70.3375 17.4052 69.9957 17.3866 69.6352 17.3866C69.0884 17.3866 68.5291 17.4363 67.9574 17.5357C67.3981 17.6227 66.8761 17.8029 66.3914 18.0764C65.9066 18.3498 65.4903 18.7289 65.1423 19.2136C64.7943 19.6859 64.5706 20.3011 64.4711 21.0593C64.3841 21.979 64.3096 22.7371 64.2474 23.3337C64.1977 23.9178 64.1604 24.4026 64.1356 24.7879C64.1107 25.1607 64.0858 25.4652 64.061 25.7014C64.0486 25.9251 64.0361 26.1364 64.0237 26.3352C64.0237 26.3849 64.0113 26.5217 63.9864 26.7454C63.974 26.9691 63.9491 27.2301 63.9118 27.5284C63.8746 27.8267 63.8373 28.1498 63.8 28.4978C63.7751 28.8458 63.7441 29.169 63.7068 29.4672C63.6695 29.7655 63.6384 30.0265 63.6136 30.2503C63.6011 30.474 63.5949 30.6107 63.5949 30.6604C63.5949 30.7598 63.5949 30.8468 63.5949 30.9214C63.6073 30.9835 63.6136 31.0457 63.6136 31.1078C63.6136 31.2073 63.5638 31.2943 63.4644 31.3688C63.3774 31.431 63.1723 31.5055 62.8492 31.5925L57.9088 33.3636C57.7721 33.4133 57.5919 33.4755 57.3682 33.5501C57.1444 33.6246 56.9269 33.6619 56.7157 33.6619C56.5417 33.6619 56.3863 33.6184 56.2496 33.5314C56.1253 33.4444 56.0631 33.2953 56.0631 33.084L57.6664 14.6088C57.7037 14.1986 57.7472 13.919 57.7969 13.7698C57.8591 13.6083 58.002 13.5026 58.2257 13.4529C59.3567 13.2292 60.525 13.0055 61.7306 12.7818C62.9362 12.5456 64.1045 12.2473 65.2355 11.8869C65.3349 11.8869 65.3909 11.9055 65.4033 11.9428C65.4281 11.9677 65.4406 12.0112 65.4406 12.0733C65.4406 12.0982 65.4344 12.1355 65.4219 12.1852C65.4219 12.2349 65.4033 12.3468 65.366 12.5208C65.3411 12.6948 65.2976 12.962 65.2355 13.3224C65.1858 13.6704 65.1112 14.1613 65.0118 14.7952C65.5835 14.3478 66.2111 13.9376 66.8947 13.5648C67.5907 13.1919 68.2867 12.875 68.9827 12.614C69.6787 12.3406 70.3499 12.1293 70.9962 11.9801C71.6425 11.8185 72.208 11.7378 72.6927 11.7378L71.5368 17.5171Z"/>
<path d="M86.8427 12.0733C86.8924 11.949 86.9857 11.8869 87.1224 11.8869C87.1472 11.8869 87.1721 11.8931 87.1969 11.9055C87.2218 11.9055 87.2467 11.9055 87.2715 11.9055C88.2037 12.266 89.1607 12.5643 90.1425 12.8004C91.1244 13.0241 92.1 13.2416 93.0695 13.4529C93.3056 13.5026 93.4237 13.6393 93.4237 13.8631C93.4237 14.0246 93.3491 14.2732 93.2 14.6088L85.5191 30.94C85.4196 31.1638 85.3326 31.344 85.2581 31.4807C85.1835 31.6174 85.1089 31.7293 85.0344 31.8163C84.9598 31.9033 84.879 31.9654 84.792 32.0027C84.705 32.04 84.5994 32.071 84.4751 32.0959C83.5305 32.2823 82.5735 32.4936 81.604 32.7298C80.6346 32.9783 79.6279 33.2828 78.5839 33.6433C78.559 33.6433 78.5404 33.6433 78.528 33.6433C78.5155 33.6557 78.5031 33.6619 78.4907 33.6619H78.3602C78.298 33.6619 78.2483 33.6371 78.211 33.5873C78.1737 33.5501 78.1489 33.5128 78.1364 33.4755C77.95 32.9411 77.7325 32.2513 77.4839 31.4061C77.2478 30.561 76.9868 29.6164 76.7009 28.5724C76.4151 27.5284 76.1168 26.416 75.8061 25.2353C75.4954 24.0546 75.1784 22.8552 74.8553 21.6372C74.5321 20.4192 74.209 19.2136 73.8858 18.0204C73.5751 16.8149 73.2706 15.6776 72.9723 14.6088C72.8605 14.2235 72.8046 13.9501 72.8046 13.7885C72.8046 13.6145 72.904 13.5026 73.1028 13.4529C74.0723 13.2416 75.079 13.0241 76.123 12.8004C77.167 12.5643 78.1551 12.266 79.0872 11.9055C79.1245 11.8931 79.1805 11.8869 79.255 11.8869C79.4166 11.8869 79.5036 11.949 79.516 12.0733C79.516 12.0733 81.8654 24.9191 81.9769 24.6014C82.0884 24.2838 82.1447 24.1851 82.2938 23.7998C82.443 23.4021 82.6232 22.9298 82.8345 22.3829C83.0458 21.836 83.2757 21.2333 83.5243 20.5745C83.7853 19.9158 84.0463 19.2447 84.3073 18.5611C84.5807 17.8775 84.8479 17.2002 85.1089 16.529C85.3699 15.8454 85.6123 15.2116 85.836 14.6274C86.0721 14.0433 86.2772 13.5275 86.4512 13.0801C86.6252 12.6326 86.7557 12.2971 86.8427 12.0733Z"/>
<path d="M104.908 11.8869C106.089 11.8869 107.157 12.1106 108.114 12.5581C109.084 12.9931 109.91 13.5648 110.594 14.2732C111.29 14.9692 111.824 15.7522 112.197 16.6222C112.57 17.4922 112.756 18.3622 112.756 19.2322C112.756 20.0028 112.52 20.7796 112.048 21.5626C111.576 22.3332 110.911 23.0292 110.053 23.6506C109.208 24.2721 108.189 24.7754 106.996 25.1607C105.803 25.546 104.491 25.7386 103.062 25.7386C102.316 25.7386 101.533 25.6641 100.713 25.5149C100.763 26.0494 100.918 26.5092 101.179 26.8945C101.44 27.2798 101.77 27.5967 102.167 27.8453C102.565 28.0939 103.012 28.2803 103.51 28.4046C104.019 28.5165 104.541 28.5724 105.076 28.5724C105.672 28.5724 106.244 28.5227 106.791 28.4232C107.35 28.3114 107.884 28.1684 108.394 27.9944C108.904 27.8204 109.395 27.6278 109.867 27.4165C110.339 27.2052 110.787 26.9939 111.209 26.7827C111.321 26.7578 111.414 26.7392 111.489 26.7267C111.576 26.7019 111.657 26.6894 111.731 26.6894C111.731 26.6894 111.725 26.7889 111.712 26.9877C111.712 27.1866 111.712 27.4662 111.712 27.8267C111.712 28.1871 111.706 28.6221 111.694 29.1317C111.694 29.6412 111.688 30.2068 111.675 30.8282C111.712 30.8903 111.737 30.9525 111.75 31.0146C111.762 31.0768 111.768 31.1265 111.768 31.1638C111.768 31.3129 111.632 31.4745 111.358 31.6485C111.085 31.8225 110.724 32.0027 110.277 32.1891C109.842 32.3756 109.339 32.5558 108.767 32.7298C108.208 32.9038 107.636 33.0591 107.052 33.1958C106.468 33.345 105.902 33.4568 105.355 33.5314C104.808 33.6184 104.33 33.6619 103.92 33.6619C102.577 33.6619 101.272 33.4258 100.005 32.9535C98.7494 32.4936 97.6308 31.8287 96.6489 30.9587C95.6795 30.0887 94.9027 29.0322 94.3186 27.7894C93.7344 26.5465 93.4423 25.1483 93.4423 23.5947C93.4423 21.9665 93.722 20.444 94.2813 19.0272C94.8406 17.5979 95.6236 16.355 96.6303 15.2986C97.6494 14.2421 98.8612 13.4094 100.266 12.8004C101.67 12.1914 103.217 11.8869 104.908 11.8869ZM104.684 16.8459C104.174 16.8459 103.702 16.9578 103.267 17.1815C102.845 17.3928 102.453 17.7035 102.093 18.1137C101.745 18.5114 101.44 18.9961 101.179 19.5678C100.918 20.1271 100.707 20.7485 100.545 21.4321C101.825 21.2084 102.888 20.9723 103.733 20.7237C104.578 20.4751 105.256 20.2265 105.765 19.978C106.275 19.717 106.635 19.4622 106.847 19.2136C107.058 18.9526 107.164 18.704 107.164 18.4679C107.164 18.2442 107.077 18.0329 106.903 17.834C106.741 17.6352 106.536 17.4612 106.287 17.312C106.039 17.1629 105.765 17.051 105.467 16.9764C105.181 16.8894 104.92 16.8459 104.684 16.8459Z"/>
<path d="M115.18 27.547C115.18 27.5346 115.174 27.5284 115.161 27.5284C115.161 27.5159 115.161 27.5035 115.161 27.4911C115.161 27.3295 115.248 27.2487 115.422 27.2487C115.534 27.2487 115.634 27.2922 115.721 27.3792C116.218 27.8515 116.783 28.2368 117.417 28.5351C118.064 28.8334 118.76 28.9825 119.505 28.9825C119.704 28.9825 119.934 28.9639 120.195 28.9266C120.456 28.8769 120.705 28.8023 120.941 28.7029C121.177 28.6035 121.37 28.473 121.519 28.3114C121.68 28.1374 121.761 27.9261 121.761 27.6775C121.761 27.4041 121.693 27.1555 121.556 26.9318C121.419 26.6957 121.239 26.503 121.015 26.3539C120.891 26.2669 120.674 26.1177 120.363 25.9064C120.052 25.6827 119.717 25.4466 119.356 25.198C119.008 24.9494 118.673 24.7133 118.349 24.4896C118.039 24.2659 117.821 24.1043 117.697 24.0048C117.138 23.5823 116.69 23.1535 116.355 22.7185C116.031 22.2835 115.783 21.836 115.609 21.3762C115.435 20.9039 115.323 20.413 115.273 19.9034C115.224 19.3938 115.199 18.8532 115.199 18.2815C115.199 17.4114 115.429 16.5912 115.889 15.8206C116.348 15.05 116.951 14.3726 117.697 13.7885C118.455 13.2043 119.313 12.7445 120.27 12.4089C121.227 12.0609 122.202 11.8869 123.197 11.8869C124.017 11.8869 124.825 12.0112 125.62 12.2598C126.416 12.5083 127.155 12.9309 127.839 13.5275C127.901 14.3105 127.944 15.0811 127.969 15.8392C127.994 16.5974 128.031 17.3928 128.081 18.2255C128.081 18.3871 128.044 18.499 127.969 18.5611C127.895 18.6108 127.808 18.6357 127.708 18.6357C127.621 18.6357 127.547 18.6046 127.484 18.5425C127.199 18.269 126.907 18.0018 126.608 17.7408C126.31 17.4674 125.993 17.2312 125.657 17.0324C125.334 16.8211 124.986 16.6533 124.613 16.529C124.241 16.3923 123.843 16.3239 123.42 16.3239C123.159 16.3239 122.898 16.3488 122.637 16.3985C122.376 16.4358 122.14 16.5166 121.929 16.6409C121.718 16.7527 121.544 16.9081 121.407 17.1069C121.283 17.3058 121.22 17.5606 121.22 17.8713C121.22 18.2317 121.264 18.5425 121.351 18.8035C121.438 19.0645 121.643 19.3192 121.966 19.5678L125.434 21.9168C126.068 22.3518 126.577 22.7806 126.962 23.2032C127.36 23.6133 127.671 24.0235 127.895 24.4336C128.118 24.8438 128.267 25.2539 128.342 25.6641C128.429 26.0618 128.473 26.4595 128.473 26.8572C128.473 27.9758 128.212 28.9639 127.69 29.8215C127.18 30.6666 126.515 31.375 125.695 31.9468C124.874 32.5061 123.942 32.9286 122.898 33.2145C121.867 33.5128 120.829 33.6619 119.785 33.6619C118.989 33.6619 118.219 33.5749 117.473 33.4009C116.74 33.2393 116.056 32.9846 115.422 32.6366L115.18 27.547Z"/>
<path d="M140.982 18.3187C140.808 19.6237 140.64 20.9288 140.479 22.2338C140.329 23.5263 140.236 24.7381 140.199 25.8691C140.199 26.3539 140.236 26.7578 140.311 27.0809C140.385 27.4041 140.491 27.6589 140.628 27.8453C140.777 28.0317 140.951 28.1684 141.15 28.2555C141.349 28.33 141.572 28.3673 141.821 28.3673C142.219 28.3673 142.654 28.3114 143.126 28.1995C143.598 28.0752 144.07 27.9199 144.543 27.7334C144.692 27.6713 144.816 27.6278 144.916 27.6029C145.027 27.5657 145.121 27.547 145.195 27.547C145.32 27.547 145.4 27.6029 145.438 27.7148C145.487 27.8267 145.531 28.0255 145.568 28.3114C145.618 28.5848 145.686 28.9577 145.773 29.43C145.86 29.9022 146.003 30.4988 146.202 31.2197C146.214 31.2818 146.221 31.3378 146.221 31.3875C146.233 31.4248 146.239 31.462 146.239 31.4993C146.239 31.6733 146.171 31.7976 146.034 31.8722C145.91 31.9468 145.699 32.0338 145.4 32.1332C144.891 32.3072 144.35 32.4874 143.778 32.6738C143.219 32.8478 142.66 33.0094 142.101 33.1586C141.554 33.3077 141.025 33.4258 140.516 33.5128C140.006 33.6122 139.559 33.6619 139.174 33.6619C137.098 33.6619 135.582 33.1461 134.625 32.1145C133.68 31.083 133.208 29.5107 133.208 27.3979C133.208 27.0374 133.22 26.6708 133.245 26.2979C133.27 25.9126 133.301 25.5149 133.338 25.1048C133.463 23.8619 133.568 22.6874 133.655 21.5813C133.755 20.4627 133.854 19.3938 133.954 18.3747H131.996C131.325 18.3747 130.84 18.3498 130.542 18.3001C130.244 18.238 130.094 18.1199 130.094 17.9459C130.094 17.8962 130.157 17.7657 130.281 17.5544C130.405 17.3307 130.561 17.0697 130.747 16.7714C130.946 16.4607 131.157 16.1313 131.381 15.7833C131.605 15.4353 131.816 15.1121 132.015 14.8139C132.226 14.5031 132.406 14.2359 132.555 14.0122C132.704 13.7885 132.798 13.6518 132.835 13.6021H134.159C134.27 12.6575 134.357 11.8683 134.42 11.2344C134.494 10.5881 134.55 10.0537 134.587 9.6311C134.637 9.20853 134.681 8.88538 134.718 8.66167C134.755 8.42552 134.792 8.25152 134.83 8.13966C134.879 8.02781 134.935 7.95945 134.998 7.93459C135.072 7.8973 135.165 7.86623 135.277 7.84138C135.836 7.72952 136.377 7.63009 136.899 7.54309C137.421 7.44366 137.943 7.34423 138.465 7.2448C138.987 7.14537 139.515 7.03351 140.05 6.90923C140.597 6.77251 141.162 6.61715 141.746 6.44315C141.784 6.44315 141.808 6.44315 141.821 6.44315C141.833 6.43072 141.858 6.42451 141.895 6.42451C142.045 6.42451 142.119 6.47422 142.119 6.57365V6.61094C142.057 7.29451 141.958 8.24531 141.821 9.46332C141.697 10.6813 141.554 12.0609 141.392 13.6021H146.388C146.488 13.6021 146.581 13.6393 146.668 13.7139C146.768 13.7761 146.817 13.8879 146.817 14.0495C146.817 14.1116 146.743 14.3354 146.594 14.7206C146.444 15.1059 146.233 15.6093 145.96 16.2307L145.288 17.7408C145.201 17.9272 145.108 18.0639 145.009 18.1509C144.922 18.238 144.735 18.2939 144.45 18.3187H140.982Z"/>
<path d="M147.787 33.4009C147.812 32.8168 147.83 32.3569 147.843 32.0213C147.855 31.6733 147.861 31.4061 147.861 31.2197C147.874 31.0333 147.88 30.9028 147.88 30.8282C147.88 30.7536 147.88 30.6853 147.88 30.6231C147.88 30.5485 147.88 30.4615 147.88 30.3621C147.892 30.2627 147.905 30.1011 147.917 29.8774C147.93 29.6412 147.948 29.3243 147.973 28.9266C147.998 28.5165 148.029 27.9758 148.066 27.3047C148.091 26.8945 148.128 26.6149 148.178 26.4657C148.24 26.3042 148.383 26.2047 148.607 26.1674C149.701 26.1674 150.844 26.1674 152.037 26.1674C153.23 26.155 154.355 26.1426 155.412 26.1301C155.523 26.1301 155.617 26.1612 155.691 26.2234C155.766 26.2855 155.803 26.4036 155.803 26.5776L155.281 32.4315C155.231 32.8416 155.182 33.1213 155.132 33.2704C155.095 33.432 154.958 33.5252 154.722 33.5501C153.665 33.5625 152.578 33.5749 151.459 33.5873C150.353 33.5998 149.197 33.606 147.992 33.606C147.917 33.606 147.861 33.5998 147.824 33.5873C147.799 33.5749 147.787 33.5376 147.787 33.4755V33.4009Z"/>
</mask>
<path d="M23.3447 8.13966C23.3447 7.69223 23.382 7.38773 23.4566 7.22616C23.5436 7.05216 23.7113 6.93408 23.9599 6.87194L30.3731 5.32457C30.5347 5.27486 30.7025 5.25 30.8765 5.25C31.0505 5.25 31.1685 5.30593 31.2307 5.41779C31.2928 5.51722 31.3239 5.7285 31.3239 6.05165L31.1002 8.9786C31.038 9.83618 30.9697 10.6875 30.8951 11.5327C30.8205 12.3778 30.7087 13.1173 30.5595 13.7512L30.224 16.3985C30.1245 17.1815 30.0313 18.0329 29.9443 18.9526C29.8573 19.8599 29.7641 20.879 29.6647 22.01L28.7885 31.201C28.776 31.3129 28.7512 31.4248 28.7139 31.5366C28.6766 31.6485 28.5958 31.7293 28.4715 31.779C28.3845 31.8163 28.1795 31.897 27.8563 32.0213C27.5456 32.1456 27.1727 32.2886 26.7377 32.4501C26.3027 32.6117 25.8366 32.7795 25.3395 32.9535C24.8424 33.1399 24.3701 33.3077 23.9226 33.4568C23.4752 33.606 23.0775 33.7303 22.7295 33.8297C22.3815 33.9291 22.1453 33.9788 22.021 33.9788C21.847 33.9788 21.6917 33.9291 21.555 33.8297C21.4307 33.7427 21.3685 33.5687 21.3685 33.3077C21.3685 31.8038 21.4555 30.2689 21.6295 28.7029C21.8035 27.1244 21.9589 25.5584 22.0956 24.0048C22.1205 23.8308 22.1267 23.6693 22.1143 23.5201C22.1143 23.371 22.1267 23.2094 22.1516 23.0354H15.3282L14.5639 31.201C14.5514 31.3129 14.5266 31.4248 14.4893 31.5366C14.4644 31.636 14.3836 31.7168 14.2469 31.779C14.1972 31.8038 13.9486 31.897 13.5012 32.0586C13.0662 32.2078 12.5566 32.388 11.9725 32.5993C11.4008 32.7981 10.829 32.997 10.2573 33.1958C9.69803 33.4071 9.26924 33.5687 8.97096 33.6806C8.82181 33.7427 8.63538 33.8048 8.41167 33.867C8.20038 33.9416 7.98909 33.9788 7.77781 33.9788C7.6038 33.9788 7.44845 33.9291 7.31173 33.8297C7.18744 33.7303 7.1253 33.5501 7.1253 33.2891C7.1253 32.6925 7.14394 32.0151 7.18123 31.257C7.23094 30.4864 7.28687 29.6847 7.34902 28.852C7.41116 28.0069 7.48573 27.1431 7.57273 26.2607C7.65973 25.3782 7.74673 24.5082 7.83373 23.6506L7.87102 23.11C6.8643 23.11 6.13101 23.0851 5.67115 23.0354C5.22372 22.9733 5 22.8241 5 22.588C5 22.4264 5.09321 22.2151 5.27964 21.9541C5.52822 21.6061 5.81408 21.1898 6.13722 20.705C6.4728 20.2079 6.78973 19.7232 7.08801 19.2509C7.39873 18.7662 7.67216 18.3374 7.90831 17.9645C8.15688 17.5792 8.31845 17.3307 8.39302 17.2188L8.82181 12.7258C8.82181 12.701 8.83424 12.5146 8.8591 12.1665C8.88396 11.8185 8.91503 11.4084 8.95231 10.9361C8.9896 10.4514 9.02689 9.95425 9.06417 9.44467C9.11389 8.9351 9.15739 8.50009 9.19467 8.13966C9.21953 7.70466 9.2506 7.40016 9.28789 7.22616C9.3376 7.05216 9.48675 6.93408 9.73532 6.87194L16.0739 5.32457C16.2355 5.27486 16.4033 5.25 16.5773 5.25C16.7513 5.25 16.8694 5.30593 16.9315 5.41779C16.9937 5.51722 17.0247 5.7285 17.0247 6.05165C16.9377 6.94651 16.8694 7.76059 16.8197 8.49388C16.7699 9.22717 16.714 9.91075 16.6519 10.5446C16.6022 11.1785 16.5462 11.7813 16.4841 12.353C16.4219 12.9247 16.3349 13.5088 16.2231 14.1054L15.8502 16.9951L22.6176 16.9205C22.7295 15.2675 22.8538 13.8631 22.9905 12.7072C23.1272 11.5513 23.2142 10.6378 23.2515 9.96668C23.2888 9.33281 23.3136 8.87917 23.3261 8.60574C23.3385 8.33231 23.3447 8.17695 23.3447 8.13966Z" fill="#50FA7B"/>
<path d="M52.0549 28.9452C52.0425 28.995 52.0363 29.0447 52.0363 29.0944C52.0363 29.1317 52.0363 29.169 52.0363 29.2062C52.0363 29.517 52.086 29.778 52.1854 29.9892C52.2848 30.1881 52.3905 30.3559 52.5023 30.4926C52.6266 30.6169 52.7385 30.7225 52.8379 30.8095C52.9373 30.8841 52.9871 30.9525 52.9871 31.0146C52.9871 31.1886 52.8006 31.3502 52.4278 31.4993L47.4128 33.6433C47.4004 33.6557 47.3569 33.6619 47.2823 33.6619C47.1829 33.6619 47.0834 33.5749 46.984 33.4009C46.8846 33.2269 46.7852 33.0032 46.6857 32.7298C46.5987 32.4688 46.5117 32.1891 46.4247 31.8908C46.3502 31.5801 46.2818 31.2943 46.2196 31.0333C45.4366 31.9405 44.5915 32.6055 43.6842 33.0281C42.7769 33.4506 41.8758 33.6619 40.981 33.6619C39.937 33.6619 38.9178 33.432 37.9235 32.9721C36.9292 32.5123 36.0468 31.8598 35.2762 31.0146C34.5056 30.157 33.8842 29.1255 33.4119 27.9199C32.9521 26.7143 32.7221 25.3596 32.7221 23.8557C32.7221 22.0784 32.9769 20.4565 33.4865 18.9899C34.0085 17.5233 34.7107 16.2618 35.5931 15.2054C36.4756 14.1489 37.5009 13.3348 38.6692 12.7631C39.85 12.179 41.099 11.8869 42.4165 11.8869C43.3486 11.8869 44.2311 12.0795 45.0638 12.4648C45.8965 12.8377 46.6857 13.3224 47.4314 13.919C47.506 13.5461 47.5495 13.2478 47.5619 13.0241C47.5744 12.8004 47.5992 12.6264 47.6365 12.5021C47.6862 12.3778 47.7732 12.2971 47.8975 12.2598C48.0218 12.21 48.2269 12.1728 48.5127 12.1479C49.4076 12.0236 50.2963 11.9118 51.1787 11.8123C52.0735 11.7005 53.0057 11.6197 53.9751 11.57L52.0549 28.9452ZM46.4807 21.9168C46.6049 21.2084 46.6857 20.5435 46.723 19.922C46.7727 19.2882 46.81 18.7102 46.8349 18.1882C46.636 18.0391 46.4185 17.8837 46.1824 17.7222C45.9586 17.5606 45.7101 17.4114 45.4366 17.2747C45.1756 17.1256 44.896 17.0075 44.5977 16.9205C44.3119 16.8335 44.0073 16.79 43.6842 16.79C43.0131 16.79 42.4476 17.0075 41.9877 17.4425C41.5403 17.8775 41.1736 18.412 40.8878 19.0458C40.6143 19.6797 40.4155 20.3508 40.2912 21.0593C40.1793 21.7677 40.1234 22.3953 40.1234 22.9422C40.1234 24.9059 40.3782 26.3477 40.8878 27.2674C41.4098 28.1747 42.1306 28.6283 43.0503 28.6283C43.4232 28.6283 43.8396 28.5227 44.2994 28.3114C44.7593 28.1001 45.2254 27.808 45.6976 27.4352L46.4807 21.9168Z" fill="#50FA7B"/>
<path d="M71.5368 17.5171C71.2758 17.4922 70.9838 17.4674 70.6606 17.4425C70.3375 17.4052 69.9957 17.3866 69.6352 17.3866C69.0884 17.3866 68.5291 17.4363 67.9574 17.5357C67.3981 17.6227 66.8761 17.8029 66.3914 18.0764C65.9066 18.3498 65.4903 18.7289 65.1423 19.2136C64.7943 19.6859 64.5706 20.3011 64.4711 21.0593C64.3841 21.979 64.3096 22.7371 64.2474 23.3337C64.1977 23.9178 64.1604 24.4026 64.1356 24.7879C64.1107 25.1607 64.0858 25.4652 64.061 25.7014C64.0486 25.9251 64.0361 26.1364 64.0237 26.3352C64.0237 26.3849 64.0113 26.5217 63.9864 26.7454C63.974 26.9691 63.9491 27.2301 63.9118 27.5284C63.8746 27.8267 63.8373 28.1498 63.8 28.4978C63.7751 28.8458 63.7441 29.169 63.7068 29.4672C63.6695 29.7655 63.6384 30.0265 63.6136 30.2503C63.6011 30.474 63.5949 30.6107 63.5949 30.6604C63.5949 30.7598 63.5949 30.8468 63.5949 30.9214C63.6073 30.9835 63.6136 31.0457 63.6136 31.1078C63.6136 31.2073 63.5638 31.2943 63.4644 31.3688C63.3774 31.431 63.1723 31.5055 62.8492 31.5925L57.9088 33.3636C57.7721 33.4133 57.5919 33.4755 57.3682 33.5501C57.1444 33.6246 56.9269 33.6619 56.7157 33.6619C56.5417 33.6619 56.3863 33.6184 56.2496 33.5314C56.1253 33.4444 56.0631 33.2953 56.0631 33.084L57.6664 14.6088C57.7037 14.1986 57.7472 13.919 57.7969 13.7698C57.8591 13.6083 58.002 13.5026 58.2257 13.4529C59.3567 13.2292 60.525 13.0055 61.7306 12.7818C62.9362 12.5456 64.1045 12.2473 65.2355 11.8869C65.3349 11.8869 65.3909 11.9055 65.4033 11.9428C65.4281 11.9677 65.4406 12.0112 65.4406 12.0733C65.4406 12.0982 65.4344 12.1355 65.4219 12.1852C65.4219 12.2349 65.4033 12.3468 65.366 12.5208C65.3411 12.6948 65.2976 12.962 65.2355 13.3224C65.1858 13.6704 65.1112 14.1613 65.0118 14.7952C65.5835 14.3478 66.2111 13.9376 66.8947 13.5648C67.5907 13.1919 68.2867 12.875 68.9827 12.614C69.6787 12.3406 70.3499 12.1293 70.9962 11.9801C71.6425 11.8185 72.208 11.7378 72.6927 11.7378L71.5368 17.5171Z" fill="#50FA7B"/>
<path d="M86.8427 12.0733C86.8924 11.949 86.9857 11.8869 87.1224 11.8869C87.1472 11.8869 87.1721 11.8931 87.1969 11.9055C87.2218 11.9055 87.2467 11.9055 87.2715 11.9055C88.2037 12.266 89.1607 12.5643 90.1425 12.8004C91.1244 13.0241 92.1 13.2416 93.0695 13.4529C93.3056 13.5026 93.4237 13.6393 93.4237 13.8631C93.4237 14.0246 93.3491 14.2732 93.2 14.6088L85.5191 30.94C85.4196 31.1638 85.3326 31.344 85.2581 31.4807C85.1835 31.6174 85.1089 31.7293 85.0344 31.8163C84.9598 31.9033 84.879 31.9654 84.792 32.0027C84.705 32.04 84.5994 32.071 84.4751 32.0959C83.5305 32.2823 82.5735 32.4936 81.604 32.7298C80.6346 32.9783 79.6279 33.2828 78.5839 33.6433C78.559 33.6433 78.5404 33.6433 78.528 33.6433C78.5155 33.6557 78.5031 33.6619 78.4907 33.6619H78.3602C78.298 33.6619 78.2483 33.6371 78.211 33.5873C78.1737 33.5501 78.1489 33.5128 78.1364 33.4755C77.95 32.9411 77.7325 32.2513 77.4839 31.4061C77.2478 30.561 76.9868 29.6164 76.7009 28.5724C76.4151 27.5284 76.1168 26.416 75.8061 25.2353C75.4954 24.0546 75.1784 22.8552 74.8553 21.6372C74.5321 20.4192 74.209 19.2136 73.8858 18.0204C73.5751 16.8149 73.2706 15.6776 72.9723 14.6088C72.8605 14.2235 72.8046 13.9501 72.8046 13.7885C72.8046 13.6145 72.904 13.5026 73.1028 13.4529C74.0723 13.2416 75.079 13.0241 76.123 12.8004C77.167 12.5643 78.1551 12.266 79.0872 11.9055C79.1245 11.8931 79.1805 11.8869 79.255 11.8869C79.4166 11.8869 79.5036 11.949 79.516 12.0733C79.516 12.0733 81.8654 24.9191 81.9769 24.6014C82.0884 24.2838 82.1447 24.1851 82.2938 23.7998C82.443 23.4021 82.6232 22.9298 82.8345 22.3829C83.0458 21.836 83.2757 21.2333 83.5243 20.5745C83.7853 19.9158 84.0463 19.2447 84.3073 18.5611C84.5807 17.8775 84.8479 17.2002 85.1089 16.529C85.3699 15.8454 85.6123 15.2116 85.836 14.6274C86.0721 14.0433 86.2772 13.5275 86.4512 13.0801C86.6252 12.6326 86.7557 12.2971 86.8427 12.0733Z" fill="#50FA7B"/>
<path d="M104.908 11.8869C106.089 11.8869 107.157 12.1106 108.114 12.5581C109.084 12.9931 109.91 13.5648 110.594 14.2732C111.29 14.9692 111.824 15.7522 112.197 16.6222C112.57 17.4922 112.756 18.3622 112.756 19.2322C112.756 20.0028 112.52 20.7796 112.048 21.5626C111.576 22.3332 110.911 23.0292 110.053 23.6506C109.208 24.2721 108.189 24.7754 106.996 25.1607C105.803 25.546 104.491 25.7386 103.062 25.7386C102.316 25.7386 101.533 25.6641 100.713 25.5149C100.763 26.0494 100.918 26.5092 101.179 26.8945C101.44 27.2798 101.77 27.5967 102.167 27.8453C102.565 28.0939 103.012 28.2803 103.51 28.4046C104.019 28.5165 104.541 28.5724 105.076 28.5724C105.672 28.5724 106.244 28.5227 106.791 28.4232C107.35 28.3114 107.884 28.1684 108.394 27.9944C108.904 27.8204 109.395 27.6278 109.867 27.4165C110.339 27.2052 110.787 26.9939 111.209 26.7827C111.321 26.7578 111.414 26.7392 111.489 26.7267C111.576 26.7019 111.657 26.6894 111.731 26.6894C111.731 26.6894 111.725 26.7889 111.712 26.9877C111.712 27.1866 111.712 27.4662 111.712 27.8267C111.712 28.1871 111.706 28.6221 111.694 29.1317C111.694 29.6412 111.688 30.2068 111.675 30.8282C111.712 30.8903 111.737 30.9525 111.75 31.0146C111.762 31.0768 111.768 31.1265 111.768 31.1638C111.768 31.3129 111.632 31.4745 111.358 31.6485C111.085 31.8225 110.724 32.0027 110.277 32.1891C109.842 32.3756 109.339 32.5558 108.767 32.7298C108.208 32.9038 107.636 33.0591 107.052 33.1958C106.468 33.345 105.902 33.4568 105.355 33.5314C104.808 33.6184 104.33 33.6619 103.92 33.6619C102.577 33.6619 101.272 33.4258 100.005 32.9535C98.7494 32.4936 97.6308 31.8287 96.6489 30.9587C95.6795 30.0887 94.9027 29.0322 94.3186 27.7894C93.7344 26.5465 93.4423 25.1483 93.4423 23.5947C93.4423 21.9665 93.722 20.444 94.2813 19.0272C94.8406 17.5979 95.6236 16.355 96.6303 15.2986C97.6494 14.2421 98.8612 13.4094 100.266 12.8004C101.67 12.1914 103.217 11.8869 104.908 11.8869ZM104.684 16.8459C104.174 16.8459 103.702 16.9578 103.267 17.1815C102.845 17.3928 102.453 17.7035 102.093 18.1137C101.745 18.5114 101.44 18.9961 101.179 19.5678C100.918 20.1271 100.707 20.7485 100.545 21.4321C101.825 21.2084 102.888 20.9723 103.733 20.7237C104.578 20.4751 105.256 20.2265 105.765 19.978C106.275 19.717 106.635 19.4622 106.847 19.2136C107.058 18.9526 107.164 18.704 107.164 18.4679C107.164 18.2442 107.077 18.0329 106.903 17.834C106.741 17.6352 106.536 17.4612 106.287 17.312C106.039 17.1629 105.765 17.051 105.467 16.9764C105.181 16.8894 104.92 16.8459 104.684 16.8459Z" fill="#50FA7B"/>
<path d="M115.18 27.547C115.18 27.5346 115.174 27.5284 115.161 27.5284C115.161 27.5159 115.161 27.5035 115.161 27.4911C115.161 27.3295 115.248 27.2487 115.422 27.2487C115.534 27.2487 115.634 27.2922 115.721 27.3792C116.218 27.8515 116.783 28.2368 117.417 28.5351C118.064 28.8334 118.76 28.9825 119.505 28.9825C119.704 28.9825 119.934 28.9639 120.195 28.9266C120.456 28.8769 120.705 28.8023 120.941 28.7029C121.177 28.6035 121.37 28.473 121.519 28.3114C121.68 28.1374 121.761 27.9261 121.761 27.6775C121.761 27.4041 121.693 27.1555 121.556 26.9318C121.419 26.6957 121.239 26.503 121.015 26.3539C120.891 26.2669 120.674 26.1177 120.363 25.9064C120.052 25.6827 119.717 25.4466 119.356 25.198C119.008 24.9494 118.673 24.7133 118.349 24.4896C118.039 24.2659 117.821 24.1043 117.697 24.0048C117.138 23.5823 116.69 23.1535 116.355 22.7185C116.031 22.2835 115.783 21.836 115.609 21.3762C115.435 20.9039 115.323 20.413 115.273 19.9034C115.224 19.3938 115.199 18.8532 115.199 18.2815C115.199 17.4114 115.429 16.5912 115.889 15.8206C116.348 15.05 116.951 14.3726 117.697 13.7885C118.455 13.2043 119.313 12.7445 120.27 12.4089C121.227 12.0609 122.202 11.8869 123.197 11.8869C124.017 11.8869 124.825 12.0112 125.62 12.2598C126.416 12.5083 127.155 12.9309 127.839 13.5275C127.901 14.3105 127.944 15.0811 127.969 15.8392C127.994 16.5974 128.031 17.3928 128.081 18.2255C128.081 18.3871 128.044 18.499 127.969 18.5611C127.895 18.6108 127.808 18.6357 127.708 18.6357C127.621 18.6357 127.547 18.6046 127.484 18.5425C127.199 18.269 126.907 18.0018 126.608 17.7408C126.31 17.4674 125.993 17.2312 125.657 17.0324C125.334 16.8211 124.986 16.6533 124.613 16.529C124.241 16.3923 123.843 16.3239 123.42 16.3239C123.159 16.3239 122.898 16.3488 122.637 16.3985C122.376 16.4358 122.14 16.5166 121.929 16.6409C121.718 16.7527 121.544 16.9081 121.407 17.1069C121.283 17.3058 121.22 17.5606 121.22 17.8713C121.22 18.2317 121.264 18.5425 121.351 18.8035C121.438 19.0645 121.643 19.3192 121.966 19.5678L125.434 21.9168C126.068 22.3518 126.577 22.7806 126.962 23.2032C127.36 23.6133 127.671 24.0235 127.895 24.4336C128.118 24.8438 128.267 25.2539 128.342 25.6641C128.429 26.0618 128.473 26.4595 128.473 26.8572C128.473 27.9758 128.212 28.9639 127.69 29.8215C127.18 30.6666 126.515 31.375 125.695 31.9468C124.874 32.5061 123.942 32.9286 122.898 33.2145C121.867 33.5128 120.829 33.6619 119.785 33.6619C118.989 33.6619 118.219 33.5749 117.473 33.4009C116.74 33.2393 116.056 32.9846 115.422 32.6366L115.18 27.547Z" fill="#50FA7B"/>
<path d="M140.982 18.3187C140.808 19.6237 140.64 20.9288 140.479 22.2338C140.329 23.5263 140.236 24.7381 140.199 25.8691C140.199 26.3539 140.236 26.7578 140.311 27.0809C140.385 27.4041 140.491 27.6589 140.628 27.8453C140.777 28.0317 140.951 28.1684 141.15 28.2555C141.349 28.33 141.572 28.3673 141.821 28.3673C142.219 28.3673 142.654 28.3114 143.126 28.1995C143.598 28.0752 144.07 27.9199 144.543 27.7334C144.692 27.6713 144.816 27.6278 144.916 27.6029C145.027 27.5657 145.121 27.547 145.195 27.547C145.32 27.547 145.4 27.6029 145.438 27.7148C145.487 27.8267 145.531 28.0255 145.568 28.3114C145.618 28.5848 145.686 28.9577 145.773 29.43C145.86 29.9022 146.003 30.4988 146.202 31.2197C146.214 31.2818 146.221 31.3378 146.221 31.3875C146.233 31.4248 146.239 31.462 146.239 31.4993C146.239 31.6733 146.171 31.7976 146.034 31.8722C145.91 31.9468 145.699 32.0338 145.4 32.1332C144.891 32.3072 144.35 32.4874 143.778 32.6738C143.219 32.8478 142.66 33.0094 142.101 33.1586C141.554 33.3077 141.025 33.4258 140.516 33.5128C140.006 33.6122 139.559 33.6619 139.174 33.6619C137.098 33.6619 135.582 33.1461 134.625 32.1145C133.68 31.083 133.208 29.5107 133.208 27.3979C133.208 27.0374 133.22 26.6708 133.245 26.2979C133.27 25.9126 133.301 25.5149 133.338 25.1048C133.463 23.8619 133.568 22.6874 133.655 21.5813C133.755 20.4627 133.854 19.3938 133.954 18.3747H131.996C131.325 18.3747 130.84 18.3498 130.542 18.3001C130.244 18.238 130.094 18.1199 130.094 17.9459C130.094 17.8962 130.157 17.7657 130.281 17.5544C130.405 17.3307 130.561 17.0697 130.747 16.7714C130.946 16.4607 131.157 16.1313 131.381 15.7833C131.605 15.4353 131.816 15.1121 132.015 14.8139C132.226 14.5031 132.406 14.2359 132.555 14.0122C132.704 13.7885 132.798 13.6518 132.835 13.6021H134.159C134.27 12.6575 134.357 11.8683 134.42 11.2344C134.494 10.5881 134.55 10.0537 134.587 9.6311C134.637 9.20853 134.681 8.88538 134.718 8.66167C134.755 8.42552 134.792 8.25152 134.83 8.13966C134.879 8.02781 134.935 7.95945 134.998 7.93459C135.072 7.8973 135.165 7.86623 135.277 7.84138C135.836 7.72952 136.377 7.63009 136.899 7.54309C137.421 7.44366 137.943 7.34423 138.465 7.2448C138.987 7.14537 139.515 7.03351 140.05 6.90923C140.597 6.77251 141.162 6.61715 141.746 6.44315C141.784 6.44315 141.808 6.44315 141.821 6.44315C141.833 6.43072 141.858 6.42451 141.895 6.42451C142.045 6.42451 142.119 6.47422 142.119 6.57365V6.61094C142.057 7.29451 141.958 8.24531 141.821 9.46332C141.697 10.6813 141.554 12.0609 141.392 13.6021H146.388C146.488 13.6021 146.581 13.6393 146.668 13.7139C146.768 13.7761 146.817 13.8879 146.817 14.0495C146.817 14.1116 146.743 14.3354 146.594 14.7206C146.444 15.1059 146.233 15.6093 145.96 16.2307L145.288 17.7408C145.201 17.9272 145.108 18.0639 145.009 18.1509C144.922 18.238 144.735 18.2939 144.45 18.3187H140.982Z" fill="#50FA7B"/>
<path d="M147.787 33.4009C147.812 32.8168 147.83 32.3569 147.843 32.0213C147.855 31.6733 147.861 31.4061 147.861 31.2197C147.874 31.0333 147.88 30.9028 147.88 30.8282C147.88 30.7536 147.88 30.6853 147.88 30.6231C147.88 30.5485 147.88 30.4615 147.88 30.3621C147.892 30.2627 147.905 30.1011 147.917 29.8774C147.93 29.6412 147.948 29.3243 147.973 28.9266C147.998 28.5165 148.029 27.9758 148.066 27.3047C148.091 26.8945 148.128 26.6149 148.178 26.4657C148.24 26.3042 148.383 26.2047 148.607 26.1674C149.701 26.1674 150.844 26.1674 152.037 26.1674C153.23 26.155 154.355 26.1426 155.412 26.1301C155.523 26.1301 155.617 26.1612 155.691 26.2234C155.766 26.2855 155.803 26.4036 155.803 26.5776L155.281 32.4315C155.231 32.8416 155.182 33.1213 155.132 33.2704C155.095 33.432 154.958 33.5252 154.722 33.5501C153.665 33.5625 152.578 33.5749 151.459 33.5873C150.353 33.5998 149.197 33.606 147.992 33.606C147.917 33.606 147.861 33.5998 147.824 33.5873C147.799 33.5749 147.787 33.5376 147.787 33.4755V33.4009Z" fill="#50FA7B"/>
<path d="M23.3447 8.13966C23.3447 7.69223 23.382 7.38773 23.4566 7.22616C23.5436 7.05216 23.7113 6.93408 23.9599 6.87194L30.3731 5.32457C30.5347 5.27486 30.7025 5.25 30.8765 5.25C31.0505 5.25 31.1685 5.30593 31.2307 5.41779C31.2928 5.51722 31.3239 5.7285 31.3239 6.05165L31.1002 8.9786C31.038 9.83618 30.9697 10.6875 30.8951 11.5327C30.8205 12.3778 30.7087 13.1173 30.5595 13.7512L30.224 16.3985C30.1245 17.1815 30.0313 18.0329 29.9443 18.9526C29.8573 19.8599 29.7641 20.879 29.6647 22.01L28.7885 31.201C28.776 31.3129 28.7512 31.4248 28.7139 31.5366C28.6766 31.6485 28.5958 31.7293 28.4715 31.779C28.3845 31.8163 28.1795 31.897 27.8563 32.0213C27.5456 32.1456 27.1727 32.2886 26.7377 32.4501C26.3027 32.6117 25.8366 32.7795 25.3395 32.9535C24.8424 33.1399 24.3701 33.3077 23.9226 33.4568C23.4752 33.606 23.0775 33.7303 22.7295 33.8297C22.3815 33.9291 22.1453 33.9788 22.021 33.9788C21.847 33.9788 21.6917 33.9291 21.555 33.8297C21.4307 33.7427 21.3685 33.5687 21.3685 33.3077C21.3685 31.8038 21.4555 30.2689 21.6295 28.7029C21.8035 27.1244 21.9589 25.5584 22.0956 24.0048C22.1205 23.8308 22.1267 23.6693 22.1143 23.5201C22.1143 23.371 22.1267 23.2094 22.1516 23.0354H15.3282L14.5639 31.201C14.5514 31.3129 14.5266 31.4248 14.4893 31.5366C14.4644 31.636 14.3836 31.7168 14.2469 31.779C14.1972 31.8038 13.9486 31.897 13.5012 32.0586C13.0662 32.2078 12.5566 32.388 11.9725 32.5993C11.4008 32.7981 10.829 32.997 10.2573 33.1958C9.69803 33.4071 9.26924 33.5687 8.97096 33.6806C8.82181 33.7427 8.63538 33.8048 8.41167 33.867C8.20038 33.9416 7.98909 33.9788 7.77781 33.9788C7.6038 33.9788 7.44845 33.9291 7.31173 33.8297C7.18744 33.7303 7.1253 33.5501 7.1253 33.2891C7.1253 32.6925 7.14394 32.0151 7.18123 31.257C7.23094 30.4864 7.28687 29.6847 7.34902 28.852C7.41116 28.0069 7.48573 27.1431 7.57273 26.2607C7.65973 25.3782 7.74673 24.5082 7.83373 23.6506L7.87102 23.11C6.8643 23.11 6.13101 23.0851 5.67115 23.0354C5.22372 22.9733 5 22.8241 5 22.588C5 22.4264 5.09321 22.2151 5.27964 21.9541C5.52822 21.6061 5.81408 21.1898 6.13722 20.705C6.4728 20.2079 6.78973 19.7232 7.08801 19.2509C7.39873 18.7662 7.67216 18.3374 7.90831 17.9645C8.15688 17.5792 8.31845 17.3307 8.39302 17.2188L8.82181 12.7258C8.82181 12.701 8.83424 12.5146 8.8591 12.1665C8.88396 11.8185 8.91503 11.4084 8.95231 10.9361C8.9896 10.4514 9.02689 9.95425 9.06417 9.44467C9.11389 8.9351 9.15739 8.50009 9.19467 8.13966C9.21953 7.70466 9.2506 7.40016 9.28789 7.22616C9.3376 7.05216 9.48675 6.93408 9.73532 6.87194L16.0739 5.32457C16.2355 5.27486 16.4033 5.25 16.5773 5.25C16.7513 5.25 16.8694 5.30593 16.9315 5.41779C16.9937 5.51722 17.0247 5.7285 17.0247 6.05165C16.9377 6.94651 16.8694 7.76059 16.8197 8.49388C16.7699 9.22717 16.714 9.91075 16.6519 10.5446C16.6022 11.1785 16.5462 11.7813 16.4841 12.353C16.4219 12.9247 16.3349 13.5088 16.2231 14.1054L15.8502 16.9951L22.6176 16.9205C22.7295 15.2675 22.8538 13.8631 22.9905 12.7072C23.1272 11.5513 23.2142 10.6378 23.2515 9.96668C23.2888 9.33281 23.3136 8.87917 23.3261 8.60574C23.3385 8.33231 23.3447 8.17695 23.3447 8.13966Z" stroke="#1A1A1D" stroke-width="10" mask="url(#path-4-outside-2)"/>
<path d="M52.0549 28.9452C52.0425 28.995 52.0363 29.0447 52.0363 29.0944C52.0363 29.1317 52.0363 29.169 52.0363 29.2062C52.0363 29.517 52.086 29.778 52.1854 29.9892C52.2848 30.1881 52.3905 30.3559 52.5023 30.4926C52.6266 30.6169 52.7385 30.7225 52.8379 30.8095C52.9373 30.8841 52.9871 30.9525 52.9871 31.0146C52.9871 31.1886 52.8006 31.3502 52.4278 31.4993L47.4128 33.6433C47.4004 33.6557 47.3569 33.6619 47.2823 33.6619C47.1829 33.6619 47.0834 33.5749 46.984 33.4009C46.8846 33.2269 46.7852 33.0032 46.6857 32.7298C46.5987 32.4688 46.5117 32.1891 46.4247 31.8908C46.3502 31.5801 46.2818 31.2943 46.2196 31.0333C45.4366 31.9405 44.5915 32.6055 43.6842 33.0281C42.7769 33.4506 41.8758 33.6619 40.981 33.6619C39.937 33.6619 38.9178 33.432 37.9235 32.9721C36.9292 32.5123 36.0468 31.8598 35.2762 31.0146C34.5056 30.157 33.8842 29.1255 33.4119 27.9199C32.9521 26.7143 32.7221 25.3596 32.7221 23.8557C32.7221 22.0784 32.9769 20.4565 33.4865 18.9899C34.0085 17.5233 34.7107 16.2618 35.5931 15.2054C36.4756 14.1489 37.5009 13.3348 38.6692 12.7631C39.85 12.179 41.099 11.8869 42.4165 11.8869C43.3486 11.8869 44.2311 12.0795 45.0638 12.4648C45.8965 12.8377 46.6857 13.3224 47.4314 13.919C47.506 13.5461 47.5495 13.2478 47.5619 13.0241C47.5744 12.8004 47.5992 12.6264 47.6365 12.5021C47.6862 12.3778 47.7732 12.2971 47.8975 12.2598C48.0218 12.21 48.2269 12.1728 48.5127 12.1479C49.4076 12.0236 50.2963 11.9118 51.1787 11.8123C52.0735 11.7005 53.0057 11.6197 53.9751 11.57L52.0549 28.9452ZM46.4807 21.9168C46.6049 21.2084 46.6857 20.5435 46.723 19.922C46.7727 19.2882 46.81 18.7102 46.8349 18.1882C46.636 18.0391 46.4185 17.8837 46.1824 17.7222C45.9586 17.5606 45.7101 17.4114 45.4366 17.2747C45.1756 17.1256 44.896 17.0075 44.5977 16.9205C44.3119 16.8335 44.0073 16.79 43.6842 16.79C43.0131 16.79 42.4476 17.0075 41.9877 17.4425C41.5403 17.8775 41.1736 18.412 40.8878 19.0458C40.6143 19.6797 40.4155 20.3508 40.2912 21.0593C40.1793 21.7677 40.1234 22.3953 40.1234 22.9422C40.1234 24.9059 40.3782 26.3477 40.8878 27.2674C41.4098 28.1747 42.1306 28.6283 43.0503 28.6283C43.4232 28.6283 43.8396 28.5227 44.2994 28.3114C44.7593 28.1001 45.2254 27.808 45.6976 27.4352L46.4807 21.9168Z" stroke="#1A1A1D" stroke-width="10" mask="url(#path-4-outside-2)"/>
<path d="M71.5368 17.5171C71.2758 17.4922 70.9838 17.4674 70.6606 17.4425C70.3375 17.4052 69.9957 17.3866 69.6352 17.3866C69.0884 17.3866 68.5291 17.4363 67.9574 17.5357C67.3981 17.6227 66.8761 17.8029 66.3914 18.0764C65.9066 18.3498 65.4903 18.7289 65.1423 19.2136C64.7943 19.6859 64.5706 20.3011 64.4711 21.0593C64.3841 21.979 64.3096 22.7371 64.2474 23.3337C64.1977 23.9178 64.1604 24.4026 64.1356 24.7879C64.1107 25.1607 64.0858 25.4652 64.061 25.7014C64.0486 25.9251 64.0361 26.1364 64.0237 26.3352C64.0237 26.3849 64.0113 26.5217 63.9864 26.7454C63.974 26.9691 63.9491 27.2301 63.9118 27.5284C63.8746 27.8267 63.8373 28.1498 63.8 28.4978C63.7751 28.8458 63.7441 29.169 63.7068 29.4672C63.6695 29.7655 63.6384 30.0265 63.6136 30.2503C63.6011 30.474 63.5949 30.6107 63.5949 30.6604C63.5949 30.7598 63.5949 30.8468 63.5949 30.9214C63.6073 30.9835 63.6136 31.0457 63.6136 31.1078C63.6136 31.2073 63.5638 31.2943 63.4644 31.3688C63.3774 31.431 63.1723 31.5055 62.8492 31.5925L57.9088 33.3636C57.7721 33.4133 57.5919 33.4755 57.3682 33.5501C57.1444 33.6246 56.9269 33.6619 56.7157 33.6619C56.5417 33.6619 56.3863 33.6184 56.2496 33.5314C56.1253 33.4444 56.0631 33.2953 56.0631 33.084L57.6664 14.6088C57.7037 14.1986 57.7472 13.919 57.7969 13.7698C57.8591 13.6083 58.002 13.5026 58.2257 13.4529C59.3567 13.2292 60.525 13.0055 61.7306 12.7818C62.9362 12.5456 64.1045 12.2473 65.2355 11.8869C65.3349 11.8869 65.3909 11.9055 65.4033 11.9428C65.4281 11.9677 65.4406 12.0112 65.4406 12.0733C65.4406 12.0982 65.4344 12.1355 65.4219 12.1852C65.4219 12.2349 65.4033 12.3468 65.366 12.5208C65.3411 12.6948 65.2976 12.962 65.2355 13.3224C65.1858 13.6704 65.1112 14.1613 65.0118 14.7952C65.5835 14.3478 66.2111 13.9376 66.8947 13.5648C67.5907 13.1919 68.2867 12.875 68.9827 12.614C69.6787 12.3406 70.3499 12.1293 70.9962 11.9801C71.6425 11.8185 72.208 11.7378 72.6927 11.7378L71.5368 17.5171Z" stroke="#1A1A1D" stroke-width="10" mask="url(#path-4-outside-2)"/>
<path d="M86.8427 12.0733C86.8924 11.949 86.9857 11.8869 87.1224 11.8869C87.1472 11.8869 87.1721 11.8931 87.1969 11.9055C87.2218 11.9055 87.2467 11.9055 87.2715 11.9055C88.2037 12.266 89.1607 12.5643 90.1425 12.8004C91.1244 13.0241 92.1 13.2416 93.0695 13.4529C93.3056 13.5026 93.4237 13.6393 93.4237 13.8631C93.4237 14.0246 93.3491 14.2732 93.2 14.6088L85.5191 30.94C85.4196 31.1638 85.3326 31.344 85.2581 31.4807C85.1835 31.6174 85.1089 31.7293 85.0344 31.8163C84.9598 31.9033 84.879 31.9654 84.792 32.0027C84.705 32.04 84.5994 32.071 84.4751 32.0959C83.5305 32.2823 82.5735 32.4936 81.604 32.7298C80.6346 32.9783 79.6279 33.2828 78.5839 33.6433C78.559 33.6433 78.5404 33.6433 78.528 33.6433C78.5155 33.6557 78.5031 33.6619 78.4907 33.6619H78.3602C78.298 33.6619 78.2483 33.6371 78.211 33.5873C78.1737 33.5501 78.1489 33.5128 78.1364 33.4755C77.95 32.9411 77.7325 32.2513 77.4839 31.4061C77.2478 30.561 76.9868 29.6164 76.7009 28.5724C76.4151 27.5284 76.1168 26.416 75.8061 25.2353C75.4954 24.0546 75.1784 22.8552 74.8553 21.6372C74.5321 20.4192 74.209 19.2136 73.8858 18.0204C73.5751 16.8149 73.2706 15.6776 72.9723 14.6088C72.8605 14.2235 72.8046 13.9501 72.8046 13.7885C72.8046 13.6145 72.904 13.5026 73.1028 13.4529C74.0723 13.2416 75.079 13.0241 76.123 12.8004C77.167 12.5643 78.1551 12.266 79.0872 11.9055C79.1245 11.8931 79.1805 11.8869 79.255 11.8869C79.4166 11.8869 79.5036 11.949 79.516 12.0733C79.516 12.0733 81.8654 24.9191 81.9769 24.6014C82.0884 24.2838 82.1447 24.1851 82.2938 23.7998C82.443 23.4021 82.6232 22.9298 82.8345 22.3829C83.0458 21.836 83.2757 21.2333 83.5243 20.5745C83.7853 19.9158 84.0463 19.2447 84.3073 18.5611C84.5807 17.8775 84.8479 17.2002 85.1089 16.529C85.3699 15.8454 85.6123 15.2116 85.836 14.6274C86.0721 14.0433 86.2772 13.5275 86.4512 13.0801C86.6252 12.6326 86.7557 12.2971 86.8427 12.0733Z" stroke="#1A1A1D" stroke-width="10" mask="url(#path-4-outside-2)"/>
<path d="M104.908 11.8869C106.089 11.8869 107.157 12.1106 108.114 12.5581C109.084 12.9931 109.91 13.5648 110.594 14.2732C111.29 14.9692 111.824 15.7522 112.197 16.6222C112.57 17.4922 112.756 18.3622 112.756 19.2322C112.756 20.0028 112.52 20.7796 112.048 21.5626C111.576 22.3332 110.911 23.0292 110.053 23.6506C109.208 24.2721 108.189 24.7754 106.996 25.1607C105.803 25.546 104.491 25.7386 103.062 25.7386C102.316 25.7386 101.533 25.6641 100.713 25.5149C100.763 26.0494 100.918 26.5092 101.179 26.8945C101.44 27.2798 101.77 27.5967 102.167 27.8453C102.565 28.0939 103.012 28.2803 103.51 28.4046C104.019 28.5165 104.541 28.5724 105.076 28.5724C105.672 28.5724 106.244 28.5227 106.791 28.4232C107.35 28.3114 107.884 28.1684 108.394 27.9944C108.904 27.8204 109.395 27.6278 109.867 27.4165C110.339 27.2052 110.787 26.9939 111.209 26.7827C111.321 26.7578 111.414 26.7392 111.489 26.7267C111.576 26.7019 111.657 26.6894 111.731 26.6894C111.731 26.6894 111.725 26.7889 111.712 26.9877C111.712 27.1866 111.712 27.4662 111.712 27.8267C111.712 28.1871 111.706 28.6221 111.694 29.1317C111.694 29.6412 111.688 30.2068 111.675 30.8282C111.712 30.8903 111.737 30.9525 111.75 31.0146C111.762 31.0768 111.768 31.1265 111.768 31.1638C111.768 31.3129 111.632 31.4745 111.358 31.6485C111.085 31.8225 110.724 32.0027 110.277 32.1891C109.842 32.3756 109.339 32.5558 108.767 32.7298C108.208 32.9038 107.636 33.0591 107.052 33.1958C106.468 33.345 105.902 33.4568 105.355 33.5314C104.808 33.6184 104.33 33.6619 103.92 33.6619C102.577 33.6619 101.272 33.4258 100.005 32.9535C98.7494 32.4936 97.6308 31.8287 96.6489 30.9587C95.6795 30.0887 94.9027 29.0322 94.3186 27.7894C93.7344 26.5465 93.4423 25.1483 93.4423 23.5947C93.4423 21.9665 93.722 20.444 94.2813 19.0272C94.8406 17.5979 95.6236 16.355 96.6303 15.2986C97.6494 14.2421 98.8612 13.4094 100.266 12.8004C101.67 12.1914 103.217 11.8869 104.908 11.8869ZM104.684 16.8459C104.174 16.8459 103.702 16.9578 103.267 17.1815C102.845 17.3928 102.453 17.7035 102.093 18.1137C101.745 18.5114 101.44 18.9961 101.179 19.5678C100.918 20.1271 100.707 20.7485 100.545 21.4321C101.825 21.2084 102.888 20.9723 103.733 20.7237C104.578 20.4751 105.256 20.2265 105.765 19.978C106.275 19.717 106.635 19.4622 106.847 19.2136C107.058 18.9526 107.164 18.704 107.164 18.4679C107.164 18.2442 107.077 18.0329 106.903 17.834C106.741 17.6352 106.536 17.4612 106.287 17.312C106.039 17.1629 105.765 17.051 105.467 16.9764C105.181 16.8894 104.92 16.8459 104.684 16.8459Z" stroke="#1A1A1D" stroke-width="10" mask="url(#path-4-outside-2)"/>
<path d="M115.18 27.547C115.18 27.5346 115.174 27.5284 115.161 27.5284C115.161 27.5159 115.161 27.5035 115.161 27.4911C115.161 27.3295 115.248 27.2487 115.422 27.2487C115.534 27.2487 115.634 27.2922 115.721 27.3792C116.218 27.8515 116.783 28.2368 117.417 28.5351C118.064 28.8334 118.76 28.9825 119.505 28.9825C119.704 28.9825 119.934 28.9639 120.195 28.9266C120.456 28.8769 120.705 28.8023 120.941 28.7029C121.177 28.6035 121.37 28.473 121.519 28.3114C121.68 28.1374 121.761 27.9261 121.761 27.6775C121.761 27.4041 121.693 27.1555 121.556 26.9318C121.419 26.6957 121.239 26.503 121.015 26.3539C120.891 26.2669 120.674 26.1177 120.363 25.9064C120.052 25.6827 119.717 25.4466 119.356 25.198C119.008 24.9494 118.673 24.7133 118.349 24.4896C118.039 24.2659 117.821 24.1043 117.697 24.0048C117.138 23.5823 116.69 23.1535 116.355 22.7185C116.031 22.2835 115.783 21.836 115.609 21.3762C115.435 20.9039 115.323 20.413 115.273 19.9034C115.224 19.3938 115.199 18.8532 115.199 18.2815C115.199 17.4114 115.429 16.5912 115.889 15.8206C116.348 15.05 116.951 14.3726 117.697 13.7885C118.455 13.2043 119.313 12.7445 120.27 12.4089C121.227 12.0609 122.202 11.8869 123.197 11.8869C124.017 11.8869 124.825 12.0112 125.62 12.2598C126.416 12.5083 127.155 12.9309 127.839 13.5275C127.901 14.3105 127.944 15.0811 127.969 15.8392C127.994 16.5974 128.031 17.3928 128.081 18.2255C128.081 18.3871 128.044 18.499 127.969 18.5611C127.895 18.6108 127.808 18.6357 127.708 18.6357C127.621 18.6357 127.547 18.6046 127.484 18.5425C127.199 18.269 126.907 18.0018 126.608 17.7408C126.31 17.4674 125.993 17.2312 125.657 17.0324C125.334 16.8211 124.986 16.6533 124.613 16.529C124.241 16.3923 123.843 16.3239 123.42 16.3239C123.159 16.3239 122.898 16.3488 122.637 16.3985C122.376 16.4358 122.14 16.5166 121.929 16.6409C121.718 16.7527 121.544 16.9081 121.407 17.1069C121.283 17.3058 121.22 17.5606 121.22 17.8713C121.22 18.2317 121.264 18.5425 121.351 18.8035C121.438 19.0645 121.643 19.3192 121.966 19.5678L125.434 21.9168C126.068 22.3518 126.577 22.7806 126.962 23.2032C127.36 23.6133 127.671 24.0235 127.895 24.4336C128.118 24.8438 128.267 25.2539 128.342 25.6641C128.429 26.0618 128.473 26.4595 128.473 26.8572C128.473 27.9758 128.212 28.9639 127.69 29.8215C127.18 30.6666 126.515 31.375 125.695 31.9468C124.874 32.5061 123.942 32.9286 122.898 33.2145C121.867 33.5128 120.829 33.6619 119.785 33.6619C118.989 33.6619 118.219 33.5749 117.473 33.4009C116.74 33.2393 116.056 32.9846 115.422 32.6366L115.18 27.547Z" stroke="#1A1A1D" stroke-width="10" mask="url(#path-4-outside-2)"/>
<path d="M140.982 18.3187C140.808 19.6237 140.64 20.9288 140.479 22.2338C140.329 23.5263 140.236 24.7381 140.199 25.8691C140.199 26.3539 140.236 26.7578 140.311 27.0809C140.385 27.4041 140.491 27.6589 140.628 27.8453C140.777 28.0317 140.951 28.1684 141.15 28.2555C141.349 28.33 141.572 28.3673 141.821 28.3673C142.219 28.3673 142.654 28.3114 143.126 28.1995C143.598 28.0752 144.07 27.9199 144.543 27.7334C144.692 27.6713 144.816 27.6278 144.916 27.6029C145.027 27.5657 145.121 27.547 145.195 27.547C145.32 27.547 145.4 27.6029 145.438 27.7148C145.487 27.8267 145.531 28.0255 145.568 28.3114C145.618 28.5848 145.686 28.9577 145.773 29.43C145.86 29.9022 146.003 30.4988 146.202 31.2197C146.214 31.2818 146.221 31.3378 146.221 31.3875C146.233 31.4248 146.239 31.462 146.239 31.4993C146.239 31.6733 146.171 31.7976 146.034 31.8722C145.91 31.9468 145.699 32.0338 145.4 32.1332C144.891 32.3072 144.35 32.4874 143.778 32.6738C143.219 32.8478 142.66 33.0094 142.101 33.1586C141.554 33.3077 141.025 33.4258 140.516 33.5128C140.006 33.6122 139.559 33.6619 139.174 33.6619C137.098 33.6619 135.582 33.1461 134.625 32.1145C133.68 31.083 133.208 29.5107 133.208 27.3979C133.208 27.0374 133.22 26.6708 133.245 26.2979C133.27 25.9126 133.301 25.5149 133.338 25.1048C133.463 23.8619 133.568 22.6874 133.655 21.5813C133.755 20.4627 133.854 19.3938 133.954 18.3747H131.996C131.325 18.3747 130.84 18.3498 130.542 18.3001C130.244 18.238 130.094 18.1199 130.094 17.9459C130.094 17.8962 130.157 17.7657 130.281 17.5544C130.405 17.3307 130.561 17.0697 130.747 16.7714C130.946 16.4607 131.157 16.1313 131.381 15.7833C131.605 15.4353 131.816 15.1121 132.015 14.8139C132.226 14.5031 132.406 14.2359 132.555 14.0122C132.704 13.7885 132.798 13.6518 132.835 13.6021H134.159C134.27 12.6575 134.357 11.8683 134.42 11.2344C134.494 10.5881 134.55 10.0537 134.587 9.6311C134.637 9.20853 134.681 8.88538 134.718 8.66167C134.755 8.42552 134.792 8.25152 134.83 8.13966C134.879 8.02781 134.935 7.95945 134.998 7.93459C135.072 7.8973 135.165 7.86623 135.277 7.84138C135.836 7.72952 136.377 7.63009 136.899 7.54309C137.421 7.44366 137.943 7.34423 138.465 7.2448C138.987 7.14537 139.515 7.03351 140.05 6.90923C140.597 6.77251 141.162 6.61715 141.746 6.44315C141.784 6.44315 141.808 6.44315 141.821 6.44315C141.833 6.43072 141.858 6.42451 141.895 6.42451C142.045 6.42451 142.119 6.47422 142.119 6.57365V6.61094C142.057 7.29451 141.958 8.24531 141.821 9.46332C141.697 10.6813 141.554 12.0609 141.392 13.6021H146.388C146.488 13.6021 146.581 13.6393 146.668 13.7139C146.768 13.7761 146.817 13.8879 146.817 14.0495C146.817 14.1116 146.743 14.3354 146.594 14.7206C146.444 15.1059 146.233 15.6093 145.96 16.2307L145.288 17.7408C145.201 17.9272 145.108 18.0639 145.009 18.1509C144.922 18.238 144.735 18.2939 144.45 18.3187H140.982Z" stroke="#1A1A1D" stroke-width="10" mask="url(#path-4-outside-2)"/>
<path d="M147.787 33.4009C147.812 32.8168 147.83 32.3569 147.843 32.0213C147.855 31.6733 147.861 31.4061 147.861 31.2197C147.874 31.0333 147.88 30.9028 147.88 30.8282C147.88 30.7536 147.88 30.6853 147.88 30.6231C147.88 30.5485 147.88 30.4615 147.88 30.3621C147.892 30.2627 147.905 30.1011 147.917 29.8774C147.93 29.6412 147.948 29.3243 147.973 28.9266C147.998 28.5165 148.029 27.9758 148.066 27.3047C148.091 26.8945 148.128 26.6149 148.178 26.4657C148.24 26.3042 148.383 26.2047 148.607 26.1674C149.701 26.1674 150.844 26.1674 152.037 26.1674C153.23 26.155 154.355 26.1426 155.412 26.1301C155.523 26.1301 155.617 26.1612 155.691 26.2234C155.766 26.2855 155.803 26.4036 155.803 26.5776L155.281 32.4315C155.231 32.8416 155.182 33.1213 155.132 33.2704C155.095 33.432 154.958 33.5252 154.722 33.5501C153.665 33.5625 152.578 33.5749 151.459 33.5873C150.353 33.5998 149.197 33.606 147.992 33.606C147.917 33.606 147.861 33.5998 147.824 33.5873C147.799 33.5749 147.787 33.5376 147.787 33.4755V33.4009Z" stroke="#1A1A1D" stroke-width="10" mask="url(#path-4-outside-2)"/>
</svg>
