<svg width="9380" height="9380" viewBox="0 0 9380 9380" fill="none" xmlns="http://www.w3.org/2000/svg">
<g clip-path="url(#clip0)">
<path d="M2951.4 1670.06H1207.85L336.088 3180.02L1207.85 4690.02H2951.4L3823.16 3180.02L2951.4 1670.06Z" fill="#84590A"/>
<path d="M2951.4 4690.02H1207.85L336.088 6199.97L1207.85 7709.93H2951.4L3823.16 6199.97L2951.4 4690.02Z" fill="#84590A"/>
<path d="M5554.64 3180.02H3811.12L2939.35 4690.02L3811.12 6199.98H5554.64L6426.4 4690.02L5554.64 3180.02Z" fill="#84590A"/>
<path d="M5648.94 6364.44H3715.7L2748.51 4689.98L3715.7 3015.52H5648.94L6616.12 4689.98L5648.94 6364.44ZM3905.39 6035.47H5454.82L6236.66 4689.98L5454.82 3344.48H3905.39L3129 4689.98L3905.39 6035.47Z" fill="#3A556A"/>
<path d="M8166.66 1670.06H6423.13L5551.35 3180.02L6423.13 4690.02H8166.66L9038.42 3180.02L8166.66 1670.06Z" fill="#84590A"/>
<path d="M8166.66 4690.02H6423.13L5551.35 6199.97L6423.13 7709.93H8166.66L9038.42 6199.97L8166.66 4690.02Z" fill="#84590A"/>
<path d="M5554.64 6199.98H3811.12L2939.35 7709.93L3811.12 9219.89H5554.64L6426.41 7709.93L5554.64 6199.98Z" fill="#84590A"/>
<path d="M5554.64 160.106H3811.12L2939.35 1670.06L3811.12 3180.02H5554.64L6426.41 1670.06L5554.64 160.106Z" fill="#84590A"/>
<path d="M5554.64 160.112V105.27H3779.31L2875.72 1670.07L3779.31 3234.87H5586.45L6489.99 1670.07L5586.45 105.27H5554.64V160.112L5506.39 187.523L6362.79 1670.07L5522.86 3125.23H3842.9L3001.84 1670.07L3842.9 214.911H5554.64V160.112L5506.39 187.523L5554.64 160.112Z" fill="#84590A"/>
<path d="M3142.19 2213.97H1397.57L589.395 3614.28C873.41 3773.29 900.82 4232.76 1115.75 4477.27C1295.58 4681.26 1643.2 4664.79 1836.2 4787.6C1945.75 4793.95 2055.59 4793.95 2165.16 4787.6C2377.89 4773.33 2586.25 4728.41 2797.86 4698.78C3107.09 4252.48 3338.48 3744.76 3675.12 3318.2C3692.48 3297.76 3712.82 3280.02 3735.41 3265.55L3142.19 2213.97Z" fill="#FCD462"/>
<path d="M2405.33 7740.64C2516.88 7716.19 2631.22 7706.96 2745.26 7713.23C2788.94 7721.91 2831.05 7737.05 2870.29 7758.2C2908.67 7672.65 2934.98 7578.37 2973.36 7501.62C3099.57 7286.18 3240.27 7079.56 3394.44 6883.14C3520.55 6700.02 3613.75 6487.26 3787.02 6354.61L3142.21 5238.29H1397.59L520.331 6748.24L1114.65 7760.35C1544.9 7777.41 1975.77 7770.82 2405.33 7740.64V7740.64Z" fill="#FCD462"/>
<path d="M3941.59 6264.68C4277.13 6142.95 4757.46 6147.34 5109.42 6170.36C5311.2 6182.42 5484.43 6260.28 5642.34 6123.19C5761.88 6020.12 5827.66 5794.22 5898.93 5653.85C6025.03 5404.94 6155.51 5031 6389.08 4859.94H6396.75L5738.8 3729.4H4000.74L3129 5238.3L3778.17 6362.27C3827.05 6321.17 3882.22 6288.2 3941.59 6264.68V6264.68Z" fill="#FCD462"/>
<path d="M7499.95 4698.78C7689.65 4676.87 7888.13 4707.55 8070.16 4687.81C8289.46 4664.8 8289.46 4592.39 8404.6 4407.07C8612.93 4078.1 8784.01 3671.26 9012.08 3349.99L8354.13 2213.95H6612.8L5735.54 3723.9L6393.5 4856.65C6675.32 4657.1 7178.66 4737.16 7499.95 4698.78V4698.78Z" fill="#FCD462"/>
<path d="M7817.93 7798.77C8153.47 7816.33 8241.21 7672.66 8433.11 7431.42C8660.1 7144.13 8938.62 6845.85 8947.37 6459.89C8947.99 6411.2 8960.38 6363.43 8983.55 6320.64L8356.3 5238.32H6612.78L5735.52 6748.28L6393.48 7883.22C6805.82 7600.28 7356.28 7775.73 7817.93 7798.77Z" fill="#FCD462"/>
<path d="M4208.05 9327.37C4537.01 9315.3 4964.67 9378.91 5282.69 9309.81C5801.35 9200.14 5920.89 8295.5 6307.97 7947.87C6336.02 7921.67 6366.53 7898.15 6398.99 7877.68L5741.04 6743.84H4000.81L3129.05 8253.8L3755.2 9338.29C3905.39 9338.34 4056.73 9333.94 4208.05 9327.37V9327.37Z" fill="#FCD462"/>
<path d="M5744.36 703.99H4000.81L3129.05 2213.97L3823.16 3180.03H5616.03L6362.79 1774.24L5744.36 703.99Z" fill="#FCD462"/>
<path d="M9228.11 3180.02L8260.93 1509.96H6520.68L5643.44 0H3715.7L2843.93 1509.96H1113.57L146.393 3180.02L1018.16 4689.98L146.393 6199.98L1113.57 7870.04H2843.93L3721.19 9380H5648.94L6526.2 7870.04H8266.42L9233.61 6195.58L8356.35 4685.63L9228.11 3180.02ZM8071.23 1838.94L8854.19 3180.02L8071.26 4525.52H6517.43L5743.24 3183.32L6520.72 1838.92H8071.23V1838.94ZM6233.41 4690.02L5454.83 6035.52H3919.63L3142.15 4690.02L3919.63 3344.53H5454.83L6233.41 4690.02ZM3905.39 324.57H5454.83L6230.11 1666.77L5454.83 3015.52H3919.63L3135.6 1659.07L3905.39 324.57ZM1303.27 1838.94H2838.46L3621.4 3195.39L2853.8 4529.91H1303.27L525.783 3180.02L1303.27 1838.94ZM2838.44 7549.83H1303.25L525.761 6199.98L1303.25 4854.48H2857.08L3624.67 6189.01L2838.44 7549.83ZM5454.85 9055.43H3905.41L3137.82 7720.9L3919.66 6364.46H5454.85L6233.43 7713.21L5454.85 9055.43ZM8071.23 7541.06H6520.7L5743.21 6197.76L6517.4 4854.46H8071.23L8854.17 6199.96L8071.23 7541.06Z" fill="black"/>
</g>
<defs>
<clipPath id="clip0">
<rect width="9380" height="9380" fill="white"/>
</clipPath>
</defs>
</svg>
